<svg id="ico_24_alerts_new_release" data-name="ico / 24 / alerts / new_release" xmlns="http://www.w3.org/2000/svg" width="19.999" height="19.999" viewBox="0 0 19.999 19.999">
  <path id="Icon_color" data-name="Icon color" d="M12.764,20a3.242,3.242,0,0,1-1.174-.22l-.46-.17a3.316,3.316,0,0,0-2.321,0l-.46.17A3.258,3.258,0,0,1,4.2,18.069l-.2-.45a3.3,3.3,0,0,0-1.62-1.679l-.45-.2a3.273,3.273,0,0,1-1.711-4.15l.17-.46a3.2,3.2,0,0,0,0-2.32l-.17-.46A3.272,3.272,0,0,1,1.928,4.2l.45-.2A3.31,3.31,0,0,0,4,2.38l.23-.45A3.259,3.259,0,0,1,8.38.22l.46.17A3.3,3.3,0,0,0,10,.6h.03A3.3,3.3,0,0,0,11.191.39l.46-.17A3.259,3.259,0,0,1,15.8,1.93l.2.45A3.315,3.315,0,0,0,17.623,4l.45.23a3.273,3.273,0,0,1,1.71,4.151l-.17.46a3.193,3.193,0,0,0,0,2.319l.17.491a3.271,3.271,0,0,1-1.71,4.15l-.45.2a3.31,3.31,0,0,0-1.681,1.62l-.2.45A3.267,3.267,0,0,1,12.764,20ZM9.5,12a.5.5,0,0,0-.5.5v1a.5.5,0,0,0,.5.5h1a.5.5,0,0,0,.5-.5v-1a.5.5,0,0,0-.5-.5Zm-.18-6a.5.5,0,0,0-.376.167.494.494,0,0,0-.123.392l.4,3.22A.251.251,0,0,0,9.468,10H10.53a.252.252,0,0,0,.25-.22l.4-3.22a.5.5,0,0,0-.5-.56H9.319Z" transform="translate(-0.001 0)" fill="#034080"/>
</svg>
