<svg xmlns="http://www.w3.org/2000/svg" width="99.605" height="89.395" viewBox="0 0 99.605 89.395">
  <g id="Group_2798" data-name="Group 2798" transform="translate(-0.006 -0.006)">
    <path id="Path_3274" data-name="Path 3274" d="M259.994,99.26l-3.241.836-39.93,10.3-3.241.836a6.136,6.136,0,0,0-4.4,7.466l14.054,54.5a6.136,6.136,0,0,0,7.466,4.4l.008,0L277.1,165.63l.008,0a6.136,6.136,0,0,0,4.4-7.466l-14.054-54.5A6.136,6.136,0,0,0,259.994,99.26Z" transform="translate(-208.978 -99.06)" fill="#034080" opacity="0.69"/>
    <path id="Path_3275" data-name="Path 3275" d="M272.525,113.058l-3.839.99-38.734,9.989-3.839.99a4.37,4.37,0,0,0-3.137,5.317l14.054,54.5a4.37,4.37,0,0,0,5.317,3.137l.008,0L288.75,176.01l.008,0a4.37,4.37,0,0,0,3.137-5.317l-14.054-54.5A4.37,4.37,0,0,0,272.525,113.058Z" transform="translate(-221.068 -111.149)" fill="#fff"/>
    <path id="Path_3276" data-name="Path 3276" d="M420.646,238.8l-23.47,6.053a1.021,1.021,0,1,1-.51-1.977l23.47-6.052a1.021,1.021,0,1,1,.51,1.977Z" transform="translate(-372.087 -219.24)" fill="#f8e397"/>
    <path id="Path_3277" data-name="Path 3277" d="M431.477,256.732l-27.547,7.1a1.021,1.021,0,1,1-.51-1.977l27.547-7.1a1.021,1.021,0,1,1,.51,1.977Z" transform="translate(-377.981 -234.891)" fill="#f8e397"/>
    <path id="Path_3278" data-name="Path 3278" d="M450.914,356.17l-23.47,6.052a1.021,1.021,0,1,1-.51-1.977l23.47-6.052a1.021,1.021,0,1,1,.51,1.977Z" transform="translate(-398.5 -321.665)" fill="#f2f2f2"/>
    <path id="Path_3279" data-name="Path 3279" d="M461.745,374.106l-27.547,7.1a1.021,1.021,0,1,1-.51-1.977l27.547-7.1a1.021,1.021,0,0,1,.51,1.977Z" transform="translate(-404.394 -337.316)" fill="#f2f2f2"/>
    <path id="Path_3280" data-name="Path 3280" d="M481.183,473.543l-23.47,6.052a1.021,1.021,0,0,1-.51-1.977l23.47-6.052a1.021,1.021,0,0,1,.51,1.977Z" transform="translate(-424.914 -424.088)" fill="#f2f2f2"/>
    <path id="Path_3281" data-name="Path 3281" d="M492.014,491.479l-27.547,7.1a1.021,1.021,0,0,1-.51-1.977l27.547-7.1a1.021,1.021,0,1,1,.51,1.977Z" transform="translate(-430.808 -439.74)" fill="#f2f2f2"/>
    <path id="Path_3282" data-name="Path 3282" d="M300.3,291.553l-8.306,2.142a.49.49,0,0,1-.6-.352l-1.907-7.393a.49.49,0,0,1,.352-.6l8.306-2.142a.49.49,0,0,1,.6.352l1.907,7.393A.49.49,0,0,1,300.3,291.553Z" transform="translate(-279.217 -259.739)" fill="#f8e397"/>
    <path id="Path_3283" data-name="Path 3283" d="M330.567,408.927l-8.306,2.142a.49.49,0,0,1-.6-.352l-1.907-7.393a.49.49,0,0,1,.352-.6l8.306-2.142a.49.49,0,0,1,.6.352l1.907,7.393A.49.49,0,0,1,330.567,408.927Z" transform="translate(-305.63 -362.163)" fill="#f8e397"/>
    <path id="Path_3284" data-name="Path 3284" d="M360.835,526.3l-8.306,2.142a.49.49,0,0,1-.6-.352l-1.907-7.393a.49.49,0,0,1,.352-.6l8.306-2.142a.49.49,0,0,1,.6.352l1.907,7.393a.49.49,0,0,1-.352.6Z" transform="translate(-332.043 -464.588)" fill="#f8e397"/>
    <path id="Path_3285" data-name="Path 3285" d="M493.252,209.052h-47.93a6.136,6.136,0,0,0-6.129,6.129v56.28a6.136,6.136,0,0,0,6.129,6.129h47.93a6.136,6.136,0,0,0,6.129-6.129v-56.28A6.136,6.136,0,0,0,493.252,209.052Z" transform="translate(-409.866 -195.038)" fill="#034080" opacity="0.69"/>
    <path id="Path_3286" data-name="Path 3286" d="M505.342,222.906h-47.93a4.37,4.37,0,0,0-4.365,4.365v56.28a4.37,4.37,0,0,0,4.365,4.365h47.93a4.37,4.37,0,0,0,4.365-4.365v-56.28A4.37,4.37,0,0,0,505.342,222.906Z" transform="translate(-421.956 -207.127)" fill="#fff"/>
    <circle id="Ellipse_248" data-name="Ellipse 248" cx="11.189" cy="11.189" r="11.189" transform="translate(77.232 67.022)" fill="#034080"/>
    <path id="Path_3287" data-name="Path 3287" d="M861.859,664.967h-3.892v-3.892a1.459,1.459,0,1,0-2.919,0v3.892h-3.892a1.459,1.459,0,0,0,0,2.919h3.892v3.892a1.459,1.459,0,0,0,2.919,0v-3.892h3.892a1.459,1.459,0,1,0,0-2.919Z" transform="translate(-768.087 -588.215)" fill="#fff"/>
    <path id="Path_3288" data-name="Path 3288" d="M633.944,451.729H609.706a1.021,1.021,0,1,1,0-2.041h24.238a1.021,1.021,0,0,1,0,2.041Z" transform="translate(-557.771 -405.025)" fill="#f8e397"/>
    <path id="Path_3289" data-name="Path 3289" d="M638.154,478.776H609.706a1.021,1.021,0,1,1,0-2.041h28.448a1.021,1.021,0,0,1,0,2.041Z" transform="translate(-557.771 -428.627)" fill="#f8e397"/>
    <path id="Path_3290" data-name="Path 3290" d="M633.944,572.942H609.706a1.021,1.021,0,1,1,0-2.041h24.238a1.021,1.021,0,0,1,0,2.041Z" transform="translate(-557.771 -510.799)" fill="#f8e397"/>
    <path id="Path_3291" data-name="Path 3291" d="M638.154,599.99H609.706a1.021,1.021,0,1,1,0-2.041h28.448a1.021,1.021,0,0,1,0,2.041Z" transform="translate(-557.771 -534.402)" fill="#f8e397"/>
    <path id="Path_3292" data-name="Path 3292" d="M511.948,446.023h-8.578a.49.49,0,0,1-.489-.489V437.9a.49.49,0,0,1,.489-.489h8.578a.49.49,0,0,1,.489.489v7.635A.49.49,0,0,1,511.948,446.023Z" transform="translate(-465.443 -394.31)" fill="#f8e397"/>
    <path id="Path_3293" data-name="Path 3293" d="M511.948,567.236h-8.578a.49.49,0,0,1-.489-.489v-7.635a.49.49,0,0,1,.489-.489h8.578a.49.49,0,0,1,.489.489v7.635A.49.49,0,0,1,511.948,567.236Z" transform="translate(-465.443 -500.085)" fill="#f8e397"/>
    <path id="Path_3294" data-name="Path 3294" d="M677.786,316.794h-17.87a1.021,1.021,0,1,1,0-2.041h17.87a1.021,1.021,0,0,1,0,2.041Z" transform="translate(-601.587 -287.276)" fill="#f8e397"/>
    <path id="Path_3295" data-name="Path 3295" d="M682,343.842h-22.08a1.021,1.021,0,1,1,0-2.041H682a1.021,1.021,0,0,1,0,2.041Z" transform="translate(-601.587 -310.879)" fill="#f8e397"/>
    <path id="Path_3296" data-name="Path 3296" d="M519.634,295.81H503.16a.49.49,0,0,1-.489-.489V282.464a.49.49,0,0,1,.489-.489h16.474a.49.49,0,0,1,.489.489v12.857A.49.49,0,0,1,519.634,295.81Z" transform="translate(-465.259 -258.672)" fill="#034080"/>
  </g>
</svg>
