<svg xmlns="http://www.w3.org/2000/svg" xmlns:xlink="http://www.w3.org/1999/xlink" width="334.152" height="315.658" viewBox="0 0 334.152 315.658">
  <defs>
    <linearGradient id="linear-gradient" x1="0.219" y1="1.445" x2="0.219" y2="0.404" gradientUnits="objectBoundingBox">
      <stop offset="0" stop-color="#dbccff"/>
      <stop offset="1" stop-color="#d1bbff"/>
    </linearGradient>
    <linearGradient id="linear-gradient-2" x1="-0.317" y1="2.018" x2="-0.317" y2="0.974" gradientUnits="objectBoundingBox">
      <stop offset="0" stop-color="#b5a6e7"/>
      <stop offset="1" stop-color="#7760bf"/>
    </linearGradient>
    <linearGradient id="linear-gradient-3" x1="-1.307" y1="7.922" x2="-0.203" y2="7.922" gradientUnits="objectBoundingBox">
      <stop offset="0" stop-color="#8b8be0"/>
      <stop offset="1" stop-color="#a177b7"/>
    </linearGradient>
    <linearGradient id="linear-gradient-4" x1="-0.177" y1="3.492" x2="-0.177" y2="2.973" gradientUnits="objectBoundingBox">
      <stop offset="0" stop-color="#fff"/>
      <stop offset="1" stop-color="#a177b7"/>
    </linearGradient>
    <linearGradient id="linear-gradient-5" x1="-0.608" y1="2.023" x2="-0.608" y2="0.943" gradientUnits="objectBoundingBox">
      <stop offset="0"/>
      <stop offset="1" stop-color="#fff"/>
    </linearGradient>
    <linearGradient id="linear-gradient-6" y1="0.501" x2="1" y2="0.501" gradientUnits="objectBoundingBox">
      <stop offset="0" stop-color="#9e8cef"/>
      <stop offset="1" stop-color="#caafee"/>
    </linearGradient>
    <linearGradient id="linear-gradient-7" x1="2.514" y1="0.501" x2="3.514" y2="0.501" xlink:href="#linear-gradient-6"/>
    <linearGradient id="linear-gradient-8" x1="0.498" y1="1" x2="0.498" y2="-0.002" gradientUnits="objectBoundingBox">
      <stop offset="0" stop-color="#d5cdf8"/>
      <stop offset="1" stop-color="#f3edfb"/>
    </linearGradient>
    <linearGradient id="linear-gradient-9" x1="-0.002" y1="0.499" x2="0.999" y2="0.499" gradientUnits="objectBoundingBox">
      <stop offset="0" stop-color="#ccf"/>
      <stop offset="1" stop-color="#755cbb"/>
    </linearGradient>
    <linearGradient id="linear-gradient-10" x1="0" y1="0.5" x2="1" y2="0.5" xlink:href="#linear-gradient-9"/>
    <linearGradient id="linear-gradient-11" x1="0.5" y1="1" x2="0.5" gradientUnits="objectBoundingBox">
      <stop offset="0" stop-color="#9e8cef"/>
      <stop offset="1" stop-color="#dac7f3"/>
    </linearGradient>
    <linearGradient id="linear-gradient-12" y1="0.5" x2="1" y2="0.5" gradientUnits="objectBoundingBox">
      <stop offset="0" stop-color="#a999f1"/>
      <stop offset="1" stop-color="#dac7f3"/>
    </linearGradient>
    <linearGradient id="linear-gradient-13" x1="0.499" y1="1" x2="0.499" gradientUnits="objectBoundingBox">
      <stop offset="0.02" stop-color="#ffc2a9"/>
      <stop offset="1" stop-color="#ff9595"/>
    </linearGradient>
    <linearGradient id="linear-gradient-14" x1="0.497" y1="1" x2="0.497" gradientUnits="objectBoundingBox">
      <stop offset="0" stop-color="#ffeadb"/>
      <stop offset="0.99" stop-color="#c27cb6"/>
    </linearGradient>
    <linearGradient id="linear-gradient-15" x1="0.5" y1="1" x2="0.5" y2="-0.001" xlink:href="#linear-gradient-13"/>
    <linearGradient id="linear-gradient-16" y1="0.5" x2="1" y2="0.5" gradientUnits="objectBoundingBox">
      <stop offset="0.02" stop-color="#d1a1d6"/>
      <stop offset="0.99" stop-color="#bd89c4"/>
    </linearGradient>
    <linearGradient id="linear-gradient-17" x1="0.5" y1="1" x2="0.5" y2="-0.001" xlink:href="#linear-gradient-13"/>
    <linearGradient id="linear-gradient-18" x1="0.501" y1="0.999" x2="0.501" y2="-0.002" xlink:href="#linear-gradient-14"/>
    <linearGradient id="linear-gradient-19" x1="0.5" y1="1" x2="0.5" gradientUnits="objectBoundingBox">
      <stop offset="0" stop-color="#ffb0b0"/>
      <stop offset="0.98" stop-color="#ffc2a9"/>
    </linearGradient>
    <linearGradient id="linear-gradient-20" x1="0.501" y1="1" x2="0.501" y2="0" xlink:href="#linear-gradient-19"/>
    <linearGradient id="linear-gradient-22" y1="0.5" x2="1" y2="0.5" gradientUnits="objectBoundingBox">
      <stop offset="0" stop-color="#ccedff"/>
      <stop offset="1" stop-color="#755cbb"/>
    </linearGradient>
    <linearGradient id="linear-gradient-23" x1="0" y1="0.5" x2="1" y2="0.5" xlink:href="#linear-gradient-22"/>
    <linearGradient id="linear-gradient-24" x1="0" y1="0.502" x2="1" y2="0.502" xlink:href="#linear-gradient-22"/>
    <linearGradient id="linear-gradient-25" x1="0.5" y1="1" x2="0.5" y2="0" xlink:href="#linear-gradient-22"/>
    <linearGradient id="linear-gradient-26" x1="0.5" y1="1" x2="0.5" y2="0" xlink:href="#linear-gradient-22"/>
    <linearGradient id="linear-gradient-27" x1="-0.001" y1="0.5" x2="0.998" y2="0.5" xlink:href="#linear-gradient-22"/>
    <linearGradient id="linear-gradient-28" x1="0.501" y1="1" x2="0.501" y2="0" xlink:href="#linear-gradient-9"/>
    <linearGradient id="linear-gradient-29" x1="0.5" y1="1" x2="0.5" y2="0" xlink:href="#linear-gradient-9"/>
    <linearGradient id="linear-gradient-30" x1="0.5" y1="1" x2="0.5" y2="0" xlink:href="#linear-gradient-9"/>
    <linearGradient id="linear-gradient-31" x1="0.5" y1="0.996" x2="0.5" y2="-0.004" xlink:href="#linear-gradient-22"/>
    <linearGradient id="linear-gradient-32" x1="0.501" y1="1" x2="0.501" y2="0" xlink:href="#linear-gradient-9"/>
    <linearGradient id="linear-gradient-33" x1="0.5" y1="1" x2="0.5" y2="0" xlink:href="#linear-gradient-22"/>
    <linearGradient id="linear-gradient-34" x1="0.501" y1="1" x2="0.501" y2="0" xlink:href="#linear-gradient-22"/>
    <linearGradient id="linear-gradient-35" y1="0.5" x2="1" y2="0.5" gradientUnits="objectBoundingBox">
      <stop offset="0" stop-color="#8642a0"/>
      <stop offset="1" stop-color="#6456c0"/>
    </linearGradient>
    <linearGradient id="linear-gradient-36" x1="0.001" y1="0.499" x2="1" y2="0.499" xlink:href="#linear-gradient-9"/>
    <linearGradient id="linear-gradient-37" x1="0.5" y1="1" x2="0.5" y2="0" xlink:href="#linear-gradient-9"/>
    <linearGradient id="linear-gradient-38" x1="0.5" y1="1" x2="0.5" y2="0" xlink:href="#linear-gradient-9"/>
    <linearGradient id="linear-gradient-39" x1="0.5" y1="0.999" x2="0.5" y2="0" xlink:href="#linear-gradient-9"/>
    <linearGradient id="linear-gradient-40" x1="0.5" y1="1" x2="0.5" y2="0.001" xlink:href="#linear-gradient-13"/>
    <linearGradient id="linear-gradient-41" x1="0.5" y1="0.999" x2="0.5" y2="0" xlink:href="#linear-gradient-13"/>
    <linearGradient id="linear-gradient-42" x1="0.471" y1="0.933" x2="0.517" y2="0.115" gradientUnits="objectBoundingBox">
      <stop offset="0" stop-color="#e1616a"/>
      <stop offset="1" stop-color="#ff8883"/>
    </linearGradient>
    <linearGradient id="linear-gradient-43" x1="0.501" y1="1" x2="0.501" gradientUnits="objectBoundingBox">
      <stop offset="0" stop-color="#cf6074"/>
      <stop offset="1" stop-color="#f37270"/>
    </linearGradient>
    <linearGradient id="linear-gradient-44" x1="0.499" y1="1" x2="0.499" gradientUnits="objectBoundingBox">
      <stop offset="0" stop-color="#cf6074"/>
      <stop offset="1" stop-color="#ff817f"/>
    </linearGradient>
    <linearGradient id="linear-gradient-45" x1="0.5" y1="1" x2="0.5" gradientUnits="objectBoundingBox">
      <stop offset="0" stop-color="#2e33a0"/>
      <stop offset="1" stop-color="#0665a5"/>
    </linearGradient>
    <linearGradient id="linear-gradient-46" x1="0.501" y1="1" x2="0.501" gradientUnits="objectBoundingBox">
      <stop offset="0" stop-color="#ffeadb"/>
      <stop offset="0.99" stop-color="#8860c7"/>
    </linearGradient>
    <linearGradient id="linear-gradient-47" x1="0.5" y1="0.999" x2="0.5" y2="0.005" gradientUnits="objectBoundingBox">
      <stop offset="0" stop-color="#776d7e"/>
      <stop offset="1" stop-color="#9d68c2"/>
    </linearGradient>
    <linearGradient id="linear-gradient-48" x1="0.5" y1="0.993" x2="0.5" y2="-0.001" gradientUnits="objectBoundingBox">
      <stop offset="0" stop-color="#1f77d1"/>
      <stop offset="1" stop-color="#0686c9"/>
    </linearGradient>
    <linearGradient id="linear-gradient-49" x1="0.5" y1="1.001" x2="0.5" y2="0" xlink:href="#linear-gradient-48"/>
    <linearGradient id="linear-gradient-50" x1="0.5" y1="1" x2="0.5" y2="0" xlink:href="#linear-gradient-48"/>
    <linearGradient id="linear-gradient-51" x1="0.805" y1="0.799" x2="-0.138" y2="0.078" gradientUnits="objectBoundingBox">
      <stop offset="0" stop-color="#ffeadb"/>
      <stop offset="0.99" stop-color="#b060f4"/>
    </linearGradient>
    <linearGradient id="linear-gradient-52" x1="0.967" y1="0.812" x2="0.004" y2="0.231" xlink:href="#linear-gradient-51"/>
    <linearGradient id="linear-gradient-53" x1="0" y1="0.498" x2="1" y2="0.498" xlink:href="#linear-gradient-48"/>
    <linearGradient id="linear-gradient-54" x1="0.002" y1="0.503" x2="0.994" y2="0.503" xlink:href="#linear-gradient-48"/>
    <linearGradient id="linear-gradient-55" x1="0" y1="0.497" x2="1" y2="0.497" xlink:href="#linear-gradient-48"/>
    <linearGradient id="linear-gradient-56" y1="0.5" x2="1" y2="0.5" gradientUnits="objectBoundingBox">
      <stop offset="0" stop-color="#9d68c2"/>
      <stop offset="1" stop-color="#aec2ff"/>
    </linearGradient>
    <linearGradient id="linear-gradient-57" x1="0.5" y1="1" x2="0.5" gradientUnits="objectBoundingBox">
      <stop offset="0" stop-color="#ccedff"/>
      <stop offset="1" stop-color="#9d68c2"/>
    </linearGradient>
    <linearGradient id="linear-gradient-58" x1="0.5" x2="0.5" y2="0" xlink:href="#linear-gradient-57"/>
    <linearGradient id="linear-gradient-61" x1="0.5" y1="1" x2="0.5" gradientUnits="objectBoundingBox">
      <stop offset="0" stop-color="#d93de3"/>
      <stop offset="1" stop-color="#ff6dba"/>
    </linearGradient>
    <linearGradient id="linear-gradient-62" x1="0.5" y1="1" x2="0.5" gradientUnits="objectBoundingBox">
      <stop offset="0" stop-color="#a242ea"/>
      <stop offset="1" stop-color="#fe117e"/>
    </linearGradient>
    <linearGradient id="linear-gradient-63" x1="0.434" y1="1.055" x2="0.548" y2="-0.06" gradientUnits="objectBoundingBox">
      <stop offset="0" stop-color="#067eff"/>
      <stop offset="1" stop-color="#3e37a0"/>
    </linearGradient>
    <linearGradient id="linear-gradient-64" x1="0.5" y1="1" x2="0.5" gradientUnits="objectBoundingBox">
      <stop offset="0" stop-color="#459fff"/>
      <stop offset="1" stop-color="#a96dff"/>
    </linearGradient>
    <filter id="Path_3210" x="301.919" y="90.177" width="23.766" height="23.766" filterUnits="userSpaceOnUse">
      <feOffset dy="8" input="SourceAlpha"/>
      <feGaussianBlur stdDeviation="3" result="blur"/>
      <feFlood flood-opacity="0.161"/>
      <feComposite operator="in" in2="blur"/>
      <feComposite in="SourceGraphic"/>
    </filter>
    <linearGradient id="linear-gradient-65" x1="0.5" x2="0.5" y2="1" gradientUnits="objectBoundingBox">
      <stop offset="0" stop-color="#ffda53"/>
      <stop offset="1" stop-color="#f6e4a5"/>
    </linearGradient>
    <linearGradient id="linear-gradient-66" x1="0.5" y1="1" x2="0.5" gradientUnits="objectBoundingBox">
      <stop offset="0" stop-color="#b31a8f"/>
      <stop offset="1" stop-color="#fe117e"/>
    </linearGradient>
    <filter id="Ellipse_240" x="310.387" y="90.177" width="23.766" height="23.766" filterUnits="userSpaceOnUse">
      <feOffset dy="8" input="SourceAlpha"/>
      <feGaussianBlur stdDeviation="3" result="blur-2"/>
      <feFlood flood-opacity="0.161"/>
      <feComposite operator="in" in2="blur-2"/>
      <feComposite in="SourceGraphic"/>
    </filter>
    <linearGradient id="linear-gradient-68" x1="0.5" y1="1" x2="0.5" y2="0" xlink:href="#linear-gradient-35"/>
    <linearGradient id="linear-gradient-69" x1="0.5" y1="1" x2="0.5" y2="-0.001" gradientUnits="objectBoundingBox">
      <stop offset="0" stop-color="#d906e3"/>
      <stop offset="1" stop-color="#ff6df9"/>
    </linearGradient>
    <linearGradient id="linear-gradient-70" x1="0.5" y1="1" x2="0.5" y2="0" xlink:href="#linear-gradient-69"/>
    <linearGradient id="linear-gradient-71" x1="1.126" y1="0.032" x2="0.959" y2="-0.982" gradientUnits="objectBoundingBox">
      <stop offset="0" stop-color="#1852a0"/>
      <stop offset="1" stop-color="#067ed3"/>
    </linearGradient>
    <linearGradient id="linear-gradient-72" x1="0.982" y1="0.095" x2="0.982" y2="-0.879" xlink:href="#linear-gradient-71"/>
    <linearGradient id="linear-gradient-73" x1="0.165" y1="1.104" x2="-0.151" y2="-0.222" gradientUnits="objectBoundingBox">
      <stop offset="0" stop-color="#188dc1"/>
      <stop offset="0.15" stop-color="#0daad7"/>
      <stop offset="1" stop-color="#06bfe7"/>
    </linearGradient>
    <linearGradient id="linear-gradient-74" x1="0.353" y1="1.113" x2="0.61" y2="-0.138" gradientUnits="objectBoundingBox">
      <stop offset="0" stop-color="#188dc1"/>
      <stop offset="1" stop-color="#06bfe7"/>
    </linearGradient>
    <linearGradient id="linear-gradient-75" x1="-0.935" y1="0.969" x2="2.116" y2="0.036" xlink:href="#linear-gradient-71"/>
    <linearGradient id="linear-gradient-76" x1="4.059" y1="2.723" x2="4.316" y2="1.473" xlink:href="#linear-gradient-74"/>
    <linearGradient id="linear-gradient-77" x1="42.335" y1="2.579" x2="45.399" y2="1.647" xlink:href="#linear-gradient-71"/>
  </defs>
  <g id="Group_2927" data-name="Group 2927" transform="translate(-4.756 -9.645)">
    <path id="Path_3083" data-name="Path 3083" d="M148.118,195.972q0-.239.232-.232l4.321.129a3.1,3.1,0,0,1,1.09.2,1.864,1.864,0,0,1,.716.477,1.819,1.819,0,0,1,.381.735,3.153,3.153,0,0,1,.1.948l-.032,1.193a3.509,3.509,0,0,1-.155.942,1.719,1.719,0,0,1-1.167,1.148,3.34,3.34,0,0,1-1.1.129l-2.328-.071-.484-1.367h-.058l-.045,1.348-1.632-.052Zm1.509,4.082,2.767.084a.9.9,0,0,0,.645-.187,1.032,1.032,0,0,0,.219-.722l.032-.967a1.09,1.09,0,0,0-.174-.742.98.98,0,0,0-.645-.213l-2.644-.077a.1.1,0,0,0-.09,0,.116.116,0,0,0,0,.077Z" transform="translate(-59.182 -35.99)" fill="#f1f1f4"/>
    <path id="Path_3084" data-name="Path 3084" d="M161.454,198.551H161.4l-.052,1.728a.1.1,0,0,0,.1.116l4.876.135-.045,1.5-6.4-.206a.213.213,0,0,1-.226-.245l.161-5.295a.213.213,0,0,1,.239-.232l6.2.193c.155,0,.232.084.226.245l-.045,1.5-1.528.516h-.065v-.774c0-.058,0-.084-.077-.084l-3.27-.1a.116.116,0,0,0-.09,0,.173.173,0,0,0,0,.077v.722l2.689.077v1.174l-2.257-.065Z" transform="translate(-63.335 -36.099)" fill="#f1f1f4"/>
    <path id="Path_3085" data-name="Path 3085" d="M176.256,198.606h-.064v-.645c0-.064,0-.1-.09-.1l-3.044-.09a.271.271,0,0,0-.232.064.3.3,0,0,0-.071.2v.142a.3.3,0,0,0,.045.219.49.49,0,0,0,.213.077l3.566.606a2.342,2.342,0,0,1,.574.168,1.128,1.128,0,0,1,.38.271.864.864,0,0,1,.2.406,2.154,2.154,0,0,1,.052.568v.458a2.012,2.012,0,0,1-.1.645,1.148,1.148,0,0,1-.3.451,1.29,1.29,0,0,1-.535.264,2.709,2.709,0,0,1-.8.071l-5.159-.155.045-1.5,4.6.135c.142,0,.232,0,.277-.064a.426.426,0,0,0,.077-.264v-.155a.277.277,0,0,0-.045-.213.3.3,0,0,0-.193-.084l-3.444-.542a2.526,2.526,0,0,1-.593-.161,1.057,1.057,0,0,1-.4-.264.941.941,0,0,1-.219-.393,1.78,1.78,0,0,1-.052-.548v-.406a1.335,1.335,0,0,1,.368-.961,1.516,1.516,0,0,1,1.116-.31l5.159.155a.226.226,0,0,1,.239.264l-.039,1.187Z" transform="translate(-67.327 -36.257)" fill="#f1f1f4"/>
    <path id="Path_3086" data-name="Path 3086" d="M182.57,202.546l.174-5.766,1.632.052L184.2,202.6Z" transform="translate(-71.474 -36.359)" fill="#f1f1f4"/>
    <path id="Path_3087" data-name="Path 3087" d="M191.57,200.383a1.888,1.888,0,0,0,0-.271v-.31l1.612.045-.084,2.831c0,.148-.071.219-.206.219l-4.34-.135a3.328,3.328,0,0,1-1.09-.193,1.748,1.748,0,0,1-1.1-1.219,3.373,3.373,0,0,1-.1-.948l.039-1.187a3.108,3.108,0,0,1,.155-.948,1.69,1.69,0,0,1,.426-.7,1.805,1.805,0,0,1,.742-.439,3.141,3.141,0,0,1,1.1-.129l4.321.129c.155,0,.226.084.219.245l-.032,1.245-1.535.51h-.064v-.555c0-.052,0-.077-.071-.077l-2.754-.084a1.47,1.47,0,0,0-.4,0,.548.548,0,0,0-.271.142.645.645,0,0,0-.161.277,1.684,1.684,0,0,0-.058.439l-.032,1.019a1.032,1.032,0,0,0,.174.735.909.909,0,0,0,.645.226l2.734.077c.058,0,.09,0,.09-.09Z" transform="translate(-72.787 -36.434)" fill="#f1f1f4"/>
    <path id="Path_3088" data-name="Path 3088" d="M200.758,197.331a.374.374,0,0,1,.393.239l2.057,4.211a.187.187,0,0,0,.148.1h.09a.11.11,0,0,0,.129-.123l.129-4.34,1.483.045-.168,5.54a.194.194,0,0,1-.226.219l-2.348-.071a.477.477,0,0,1-.245-.052.464.464,0,0,1-.155-.187l-2.135-4.2a.168.168,0,0,0-.148-.1h-.084a.114.114,0,0,0-.129.123l-.129,4.334-1.483-.045.168-5.534a.2.2,0,0,1,.226-.226Z" transform="translate(-76.932 -36.53)" fill="#f1f1f4"/>
    <ellipse id="Ellipse_235" data-name="Ellipse 235" cx="108.572" cy="114.631" rx="108.572" ry="114.631" transform="translate(4.756 163.19) rotate(-45)" fill="#e0f3ff"/>
    <path id="Path_3089" data-name="Path 3089" d="M146.376,182.322a15.362,15.362,0,0,0-6.81-5.972l-1.516.7,3.418,6.2a6.662,6.662,0,0,1-2.09,3.689h0a6.669,6.669,0,0,1-4.173-.761l-2.58-6.6-1.522.709a15.35,15.35,0,0,0,.219,9.029s.645,1.49.755,1.625c.606.7,2.167,1.509,5.2,1.322l10.467,19.974a5.469,5.469,0,1,0,5.65-2.638l-8.578-20.8c2.038-2.154,2.47-3.87,2.315-4.831A17.618,17.618,0,0,0,146.376,182.322Zm8.59,34.381-2.767,1.29-2.5-1.748.264-3.044,2.767-1.29,2.5,1.748Z" transform="translate(-52.997 -29.105)" fill="url(#linear-gradient)"/>
    <path id="Path_3090" data-name="Path 3090" d="M147.549,184.839a15.317,15.317,0,0,0-6.8-5.979l-1.516.709,3.412,6.191a6.591,6.591,0,0,1-2.09,3.689h0a6.643,6.643,0,0,1-4.173-.767l-2.58-6.591-1.516.709a15.375,15.375,0,0,0,.213,9.029s2.367,3.167,5.953,2.941L148.9,214.712a5.463,5.463,0,1,0,5.65-2.644l-8.584-20.793C148.464,188.682,147.549,184.839,147.549,184.839Zm8.6,34.381-2.767,1.29-2.5-1.748.264-3.044,2.767-1.29,2.5,1.754Z" transform="translate(-53.415 -29.996)" fill="#034080"/>
    <rect id="Rectangle_83" data-name="Rectangle 83" width="1.67" height="1.793" transform="translate(78.127 151.173) rotate(-25.04)" fill="#e5e2ff"/>
    <rect id="Rectangle_84" data-name="Rectangle 84" width="1.67" height="1.793" transform="translate(85.05 147.951) rotate(-25.04)" fill="#e5e2ff"/>
    <rect id="Rectangle_85" data-name="Rectangle 85" width="3.057" height="1.793" transform="translate(99.203 188.893) rotate(-25.04)" fill="#e5e2ff"/>
    <path id="Path_3091" data-name="Path 3091" d="M145.66,204.575l8.442,16.214a4.115,4.115,0,0,0,3.405-1.593l-6.869-16.955A6.507,6.507,0,0,0,145.66,204.575Zm11.183,14.762a4.967,4.967,0,0,1-1.09.716,4.192,4.192,0,0,1-1.167.348l-8.449-15.891a8.867,8.867,0,0,1,2.032-1.335,7.1,7.1,0,0,1,2.09-.613Z" transform="translate(-58.369 -38.298)" fill="url(#linear-gradient-2)"/>
    <path id="Path_3092" data-name="Path 3092" d="M161.48,228.675l.645-.135a3.637,3.637,0,0,1-3.405,1.593l.5-.393A4.6,4.6,0,0,0,161.48,228.675Z" transform="translate(-63.006 -47.636)" fill="#e5e2ff"/>
    <path id="Path_3093" data-name="Path 3093" d="M145.66,204.585l.49-.064a7.842,7.842,0,0,1,4.121-1.935l.368-.316a6.372,6.372,0,0,0-4.979,2.328Z" transform="translate(-58.369 -38.308)" opacity="0.62" fill="url(#linear-gradient-3)"/>
    <path id="Path_3094" data-name="Path 3094" d="M142.19,201.636a18.658,18.658,0,0,0,7.52-3.5l1.1,2.657s-1.245-1.232-3.973-.116c-3.192,1.29-3.018,3.87-3.018,3.87Z" transform="translate(-57.137 -36.842)" opacity="0.62" fill="url(#linear-gradient-4)"/>
    <path id="Path_3095" data-name="Path 3095" d="M154.634,201.944a3.225,3.225,0,0,0-1.664-.574l8.165,19.754.987-1.019Z" transform="translate(-60.964 -37.989)" opacity="0.5" fill="url(#linear-gradient-5)"/>
    <path id="Path_3096" data-name="Path 3096" d="M155.471,202.26a3.236,3.236,0,0,0,1.606,3.87Z" transform="translate(-61.802 -38.305)" fill="#fff"/>
    <path id="Path_3097" data-name="Path 3097" d="M299.41,368.328H269.1c-3.173-17.62-10.551-40.547-10.551-40.547-1.793-1.064-5.295.245-5.295.245l-11.08,40.3H214.479c-1.47-24.869,12.138-53.1,12.138-53.1h0a3.051,3.051,0,0,1-.361-1.541,3.663,3.663,0,0,1,1.032-1.2c.748-.684,1.638-1.367,1.638-1.367l51.665-.322s.522.264,1.187.645h0c1.129.684,2.657,1.741,2.657,2.515a3.528,3.528,0,0,1-.522,1.935v.032C294.966,336.823,299.41,368.328,299.41,368.328Z" transform="translate(-82.765 -76.844)" fill="#1866b8"/>
    <path id="Path_3098" data-name="Path 3098" d="M251.746,377.73l-.316-.052a148.329,148.329,0,0,1,12.557-38.361l.039-.045,2.283-1.993.206.245-2.251,1.973A148.554,148.554,0,0,0,251.746,377.73Z" transform="translate(-95.924 -86.246)" fill="url(#linear-gradient-6)"/>
    <path id="Path_3099" data-name="Path 3099" d="M297.475,377.73a145.8,145.8,0,0,0-12.757-38.4l-2.019-1.806.219-.245,2.07,1.877a145.529,145.529,0,0,1,12.8,38.522Z" transform="translate(-107.027 -86.246)" fill="url(#linear-gradient-7)"/>
    <path id="Path_3100" data-name="Path 3100" d="M290.462,313.973a3.527,3.527,0,0,1-.522,1.935v.032C279.182,318.372,271,328.413,271,328.413c5.843,11.222,15.594,39.915,15.594,39.915h-11.46c-3.173-17.62-10.551-40.547-10.551-40.547-1.793-1.064-5.295.245-5.295.245l-11.08,40.3h-7.172c2.58-16.884,10.145-37.5,10.145-37.5-7.449-8.674-18.529-15.6-18.529-15.6h0l-1.29-.826.954-.716c4.792,4.6,20.244,10.6,20.722,10.79l-19.69-11.989c.748-.684,1.638-1.367,1.638-1.367l51.665-.322s.522.264,1.187.645l-14.111,7.739Z" transform="translate(-88.798 -76.844)" fill="#3985d5" opacity="0.32"/>
    <path id="Path_3101" data-name="Path 3101" d="M217.57,298.015l6.037-3.915-1.438,3.915-1.051,11.776Z" transform="translate(-41.788 -47.078)" fill="#034080" opacity="0.76"/>
    <path id="Path_3102" data-name="Path 3102" d="M198.5,295.259l-6.282-3.554L178.77,285.65l17.123,11.312,1.025,4.063Z" transform="translate(-28.011 -44.078)" fill="#034080" opacity="0.76"/>
    <path id="Path_3103" data-name="Path 3103" d="M288.539,139.662c.039.277.071.426.071.426a36.936,36.936,0,0,1-1.071,3.65,29.667,29.667,0,0,1-4.018,7.817,15.385,15.385,0,0,1-1.754,2.051c-9.41-2.954-14.047-12.157-15.827-16.768a.23.23,0,0,1,0-.071c-.342-.864-.568-1.561-.709-2.012h0c-.11-.361-.161-.561-.161-.561l.116-.239v-.032c.155-.322.31-.645.451-.967a45.9,45.9,0,0,0,2.58-7.2c.458-1.69.7-2.992.819-3.683.058-.355.084-.548.084-.548l4.386,2.315,15.111,8a24.862,24.862,0,0,0-.322,3.831c0,.806,0,1.528.058,2.141.045.748.123,1.341.181,1.728h0A.44.44,0,0,0,288.539,139.662Z" transform="translate(-100.767 -9.637)" fill="#fe9083"/>
    <path id="Path_3104" data-name="Path 3104" d="M284.447,161.5a12.962,12.962,0,0,1-3.121,2.283l-.077.045-.09-.052h0c-.329-.2-1.451-.89-2.96-2.025-3.947-2.973-10.538-8.984-12.421-17.084h0a20.082,20.082,0,0,1-.452-2.96h0c0-.264-.039-.529-.045-.8a41.552,41.552,0,0,0,3.579,6.4c2.67,3.908,6.675,8.171,11.46,8.2,4.141,0,6.262-2.805,7.339-5.417a14.778,14.778,0,0,0,.871-2.967c.045-.232.077-.439.11-.613h0a.564.564,0,0,1,.032-.239c.039-.29.052-.458.052-.458S290.252,155.653,284.447,161.5Z" transform="translate(-100.842 -16.522)" fill="url(#linear-gradient-8)"/>
    <path id="Path_3105" data-name="Path 3105" d="M284.444,161.506a12.963,12.963,0,0,1-3.121,2.283h-.174c-.329-.2-1.451-.89-2.96-2.025-3.947-2.973-10.538-8.984-12.421-17.084h0a20.078,20.078,0,0,1-.451-2.96h0c0-.264-.039-.529-.045-.8a41.555,41.555,0,0,0,3.579,6.4s2.58,7.159,8.242,10.706c2.825,1.774,4.966,1.516,6.54.471a9.732,9.732,0,0,0,3.192-4.218,9.92,9.92,0,0,0,.826-3.6v-.58a14.782,14.782,0,0,0,.871-2.967c.045-.232.077-.439.11-.613h0a.565.565,0,0,1,.032-.239c.039-.29.052-.458.052-.458S290.248,155.657,284.444,161.506Z" transform="translate(-100.838 -16.525)" opacity="0.5" fill="url(#linear-gradient-9)"/>
    <path id="Path_3106" data-name="Path 3106" d="M293.19,219.416l-.1.052c-.529.065-2.173-.3-4.328-2.161h0a27.52,27.52,0,0,1-6.133-8.539c-4.321-8.636-5.559-14.4-5.759-15.407v-.155l-2.522,4c-1.709,5.159-4.947,26.41-4.889,27.326s2.87,5.379,2.812,5.927h0c-.077.555-1.341,1.774-1.7,3.1-.245.884,1.47,3.67,2.676,5.753h0a8.468,8.468,0,0,1,1.109,2.309c0,.974-3.057,5.74-3.057,5.74v2.58l-.045.045-.142.129-.116.1c-1.161.916-6.082,3.915-21.457,4.74-18.219.974-30.357-4.889-30.357-4.889l.916-2.509s-.851-.729-.916-1.1.645-1.225.645-1.225-1.832-.974-1.832-2.2,3.67-5,3.547-8.249-2.934-6.107-3.3-7.939S223,220.493,223,220.493c-4.4-13.931-5.256-32.627-5.256-32.627l-.909-1.038s-5.256,11.976-10.022,17.839c-.568.7-1.167,1.387-1.786,2.051a52.24,52.24,0,0,1-4.1,3.966c-3.3,2.876-6.3,4.766-7.062,4.618-1.225-.245-6.114-9.9-5.888-19.8.1-4.708,2.941-9.977,5.888-14.189.316-.451.645-.9.954-1.329a67.648,67.648,0,0,1,5.056-6.095c.374-.4.587-.613.587-.613s-.645-2.161-1.129-4.037a1.032,1.032,0,0,0-.032-.135.234.234,0,0,0,0-.064.2.2,0,0,0,0-.045,5.69,5.69,0,0,1-.284-2.4c.406-.645,2.773-1.387,3.179-1.87s2.115-8.719,3.418-9.616,3.45-1.483,10.783-4.366l1.116-.439c8.223-3.257,16.291-7.21,16.291-7.21l3.1-3.805h1.38l-.451.967v.032c.219.98.471,1.935.755,2.818a.23.23,0,0,0,0,.071,28.726,28.726,0,0,0,15.188,17.755,19.019,19.019,0,0,0,7.462-14.537v-1.225l1.425.426.974,2.322s1.651,2.58,8.191,5.443a38.907,38.907,0,0,1,3.592,1.838c5.985,3.4,12.641,8.655,13.15,9.771a3.618,3.618,0,0,1,.174.555h0c.7,2.76,2.148,13.1,3.489,16.768a8.448,8.448,0,0,0,3.134,4.231h0a4.907,4.907,0,0,0,1.251.645q.155.851.29,1.683C299.723,206.576,294.4,218.578,293.19,219.416Z" transform="translate(-73.391 -15.946)" fill="#ffe277"/>
    <path id="Path_3107" data-name="Path 3107" d="M226.774,194.737l-5.314,1.786-.851-.993s-5.256,11.976-10.022,17.839c-.568.7-1.167,1.387-1.786,2.051a52.242,52.242,0,0,1-4.1,3.966l-4.05-17.458-2.057-13.253a67.642,67.642,0,0,1,5.056-6.095c.374-.4.587-.613.587-.613s-.645-2.161-1.129-4.037a1.036,1.036,0,0,0-.032-.135.234.234,0,0,0,0-.064.2.2,0,0,0,0-.045,5.69,5.69,0,0,1-.284-2.4c.406-.645,2.773-1.387,3.179-1.87s2.115-8.719,3.418-9.616c0,0-.851,7.9,3.67,17.923l2.2,3.1,6.449,5.159A19.8,19.8,0,0,0,226.774,194.737Z" transform="translate(-77.163 -24.649)" opacity="0.5" fill="url(#linear-gradient-10)"/>
    <path id="Path_3108" data-name="Path 3108" d="M203.266,212.388c-1.142,8.468-13.763,14.988-13.763,14.988-2.812,0-5.953-4.889-8.8-10.919s-3.025-23.353-3.173-24.424-1.741-3.225-1.838-4.128,2.58-2.812,2.58-2.812V185c-.277-.593-1.838-3.941-1.728-4.553s3.109-2.135,3.109-2.135l.187,3.3s6.952-1.29,9.306-6.7l.413-1.651,1.161.774v7.094s.239,1.1.606,1.1,3.076-1.354,3.644-1.167,1.135,3.979,1.9,4.463,2.773,1.9,3.076,2.58a12.252,12.252,0,0,1,.161,2.676,27.343,27.343,0,0,0,.264,4.476C200.744,197.129,204.407,203.914,203.266,212.388Z" transform="translate(-69.03 -28.008)" fill="url(#linear-gradient-11)"/>
    <path id="Path_3109" data-name="Path 3109" d="M377.588,215.473c-.568.9-3.418,2.773-4.153,3.508s0,3.141,0,3.141a98.9,98.9,0,0,1-25.72,19.7l-.1.052c-7.52-5.056-6.875-13.382-4.379-20.4a52.946,52.946,0,0,1,6.656-12.5h0a15.742,15.742,0,0,1,3.818-1.058,2.315,2.315,0,0,1,1.412.439c.916.568,1.69,1.464,2.438,1.09,1.1-.555,3.566-6.378,5.237-6.54,1.167-.11,2.786,1.077,3.87,1.754.471.3.838.5,1.019.445.645-.161,2.689-2.651,2.857-2.715s1.109.645,1.109.645l-.645.826a22.573,22.573,0,0,0,4.366,9.784l2.238-3.276S378.162,214.577,377.588,215.473Z" transform="translate(-127.916 -38.349)" fill="url(#linear-gradient-12)"/>
    <path id="Path_3110" data-name="Path 3110" d="M290.3,139.719a.676.676,0,0,1-.032.252,4.967,4.967,0,0,1-.122.516h0c-.767,2.844-3.87,5.753-7.784,4.353-4.276-1.528-12.415-18.768-12.415-18.768l.819-3.683,19.348,15.736.213,1.49Z" transform="translate(-102.5 -9.946)" fill="#cb4d7a"/>
    <path id="Path_3111" data-name="Path 3111" d="M191.692,132.372a48.018,48.018,0,0,1-.645-11.325,52.238,52.238,0,0,0-.135-10.267,2.651,2.651,0,0,0-2.025,0c-.858.49-2.851,5.463-1.935,9.455s.206,13.544.206,13.544H185.81l-2.934-4.031-1.425-.413s-8.2,7.739-8.081,12.344l1.071,4.1,10.106-.348,6.572-7.488Z" transform="translate(-68.207 -5.752)" fill="#ee8183"/>
    <path id="Path_3112" data-name="Path 3112" d="M180.19,139.69a52.386,52.386,0,0,0,1.38,9.532,2.283,2.283,0,0,1-2.3,1.935l-.516-.58a2.687,2.687,0,0,1-2.231,2.2L174.746,151l.458,1.464a2.509,2.509,0,0,1-2.322,1.5s-2.812-2.2-2.992-5.076l2.78-2.348V144.74l3.3-2.322.064-1.29A7.791,7.791,0,0,1,180.19,139.69Z" transform="translate(-66.972 -16.088)" fill="url(#linear-gradient-13)"/>
    <path id="Path_3113" data-name="Path 3113" d="M195.195,124.67a4.625,4.625,0,0,1-1.2,1.748,10.222,10.222,0,0,1-2.735.864l-.09,11.519h-1.348l-2.934-4.031a10.572,10.572,0,0,1,1.58,4.031l-1.161.568-1.006-3.45-.477,2.483.471,3.1a8.139,8.139,0,0,1,4.889-1.561l.471.858s-5.688,4.714-7,7.494c0,0,2.812-3.573,9.229-7.513l.606-1.89.813-4.515S194.5,127.843,195.195,124.67Z" transform="translate(-72.213 -10.755)" opacity="0.6" fill="url(#linear-gradient-14)"/>
    <path id="Path_3114" data-name="Path 3114" d="M196.471,146.561c-.529,1.587-6.069,8.184-6.681,9.616a19.348,19.348,0,0,0-.98,3.3c-2.722,5.92-9.332,6.7-9.332,6.7l-.3-5.314s-3.541-2.038-4.14-3.154h0l-.071-.187a44.374,44.374,0,0,1,0-4.889l6.2-2.509c2.689-3.483,9.229-7.513,9.229-7.513l.3-1.825c-4.7-2.309-3.908-9.293-3.115-10.151a3.483,3.483,0,0,1,2.257-.851s1.716,5.617,2.812,8.249S197,144.975,196.471,146.561Z" transform="translate(-68.749 -12.57)" fill="url(#linear-gradient-15)"/>
    <path id="Path_3115" data-name="Path 3115" d="M179.354,141.87s.69,6.417,2.722,9.474a14.956,14.956,0,0,1-2.786-8.158Z" transform="translate(-70.31 -16.862)" fill="#e28183"/>
    <path id="Path_3116" data-name="Path 3116" d="M174.18,147.51s.645,5.159,3.87,8.036c0,0-2.818-1.406-3.87-6.23Z" transform="translate(-68.495 -18.865)" fill="#e28183"/>
    <path id="Path_3117" data-name="Path 3117" d="M193.018,168.59s-6.985,6.785-11.448,6.049l.3,5.314a11.789,11.789,0,0,0,9.719-8.384A20.349,20.349,0,0,1,193.018,168.59Z" transform="translate(-71.119 -26.35)" opacity="0.91" fill="url(#linear-gradient-16)"/>
    <path id="Path_3118" data-name="Path 3118" d="M407.508,169.488s-6.417,11.731-13.931,15.336H391l-5.927,8.984s-3.831-2.406-4.115-10.319a7.2,7.2,0,0,0,1.683-2.967,11.921,11.921,0,0,1-2.689-2.883c-.574-1.219-.774-4.889-1.18-6.4s-3.87-4.643-4.644-5.05a20.891,20.891,0,0,0-4.276-.613s-.49-1.29,0-1.87,5.946-2.735,8.919-.7a13.4,13.4,0,0,0,.529,2.367c.329.813,2.934,3.7,3.341,3.7a8.347,8.347,0,0,0,2.934-2.58,115.174,115.174,0,0,0,5.637-12.46.319.319,0,0,1,0-.084.754.754,0,0,1,.039-.129.591.591,0,0,0,0-.084s0,0,0-.032c.735-2.483,5.011-7.249,7.294-8.552a1.348,1.348,0,0,1,1.5.974,53.406,53.406,0,0,1-3.747,8.313c-.322.522-.645,1.135-1.032,1.793h0c-1.632,3-3.47,6.927-3.734,7.5l-.032.071,1.019.522,2.754-2.612,2.825-2.676,6.482,6.843-.645.813-2.025,2.58,1.025.187,2.386-2.638Z" transform="translate(-137.894 -18.026)" fill="url(#linear-gradient-17)"/>
    <path id="Path_3119" data-name="Path 3119" d="M413.147,176.9l-2.051,3.012s-11.235-8.661-13.679-9.416-3.341-.245-3.341-.245l-2.522,3.225s4.644,4.115,5.05,9.674c0,0-1.548-7-6.8-9.126a8.346,8.346,0,0,0,2.934-2.58,115.163,115.163,0,0,0,5.637-12.46,3.225,3.225,0,0,0,.1,2.2c.555,1.025,3.818.058,4.011,0h0l-3.741,7.5-.032.071,1.019.522,2.754-2.612-1.38,3.225,10.048,1.774-2.025,2.58,1.025.187Z" transform="translate(-145.055 -22.938)" opacity="0.6" fill="url(#linear-gradient-18)"/>
    <path id="Path_3120" data-name="Path 3120" d="M411.218,166.655s1.935-.284,3.225,2.244l-.284.813s1.935.374,3.747,3.463a10.441,10.441,0,0,1-5.662,4.315,3.235,3.235,0,0,1-2.2-2.115l.368-1.019-1.464,1.1s-1.754.529-2.528-2.083Z" transform="translate(-150.956 -25.659)" fill="url(#linear-gradient-19)"/>
    <path id="Path_3121" data-name="Path 3121" d="M426.266,179.926a3.012,3.012,0,0,0-1.586-3.1l-3.87,4.276a1.993,1.993,0,0,0,1.793,1.67A7.226,7.226,0,0,0,426.266,179.926Z" transform="translate(-156.066 -29.276)" fill="url(#linear-gradient-20)"/>
    <path id="Path_3122" data-name="Path 3122" d="M385.63,195.53a28.674,28.674,0,0,0,11.061,7.185l-2.838,4.3-5.914-7.507.38-1.09S385.952,196.633,385.63,195.53Z" transform="translate(-143.574 -35.916)" opacity="0.91" fill="url(#linear-gradient-16)"/>
    <path id="Path_3123" data-name="Path 3123" d="M416.145,171.4a22.224,22.224,0,0,1-3.747,4.643l-.368,1.019s3.637-2.457,4.979-5.288A2.3,2.3,0,0,0,416.145,171.4Z" transform="translate(-152.948 -27.348)" fill="#e28183"/>
    <path id="Path_3124" data-name="Path 3124" d="M371.978,207.21c-.568.9-3.418,2.773-4.153,3.508s0,3.141,0,3.141a98.9,98.9,0,0,1-25.72,19.7l-.1.052c-.98.123-5.746-1.219-10.512-10.751-4.321-8.636-5.559-14.4-5.759-15.407v-.155l1.051-1.425,1.561-17.594,1.1,3.541a82.752,82.752,0,0,0,8.068-12.705l.174.555h0c.7,2.76,2.148,13.1,3.489,16.768a8.449,8.449,0,0,0,3.134,4.231h0c-3.824,3.489-5.72,8.507-6.656,12.5a34.627,34.627,0,0,0-.916,6.449,43.49,43.49,0,0,1,4.4-10.964,23.541,23.541,0,0,1,4.727-5.708,37.958,37.958,0,0,1,3.689-2.954c.916.568,1.69,1.464,2.438,1.09-5.03,7.552-4.908,22.5-.181,19.651s5.8-8.9,5.8-8.9c-1.116-7.372-.787-15.685.11-17.265,1.09,0,4.2,2.225,4.385,2.173a25.539,25.539,0,0,0,3.786,14.55l2.689-4.16a25.8,25.8,0,0,1-3.625-13.021c.161-.071,1.109.645,1.109.645l-.645.826a22.573,22.573,0,0,0,4.34,9.8L372,202.1S372.552,206.313,371.978,207.21Z" transform="translate(-122.306 -30.085)" fill="#ffe277" opacity="0.5"/>
    <path id="Path_3125" data-name="Path 3125" d="M266.825,259.8v2.58l-.045.045-.142.129-.116.1c-1.161.916-6.082,3.915-21.457,4.74-18.219.974-30.357-4.889-30.357-4.889l.916-2.509s-.851-.729-.916-1.1.645-1.225.645-1.225-1.832-.974-1.832-2.2c0-1.1,2.992-4.3,3.476-7.294a4.358,4.358,0,0,0,.071-.955c-.123-3.225-2.909-6.082-3.3-7.913h0c-.368-1.832,4.766-6.353,4.766-6.353-4.4-13.931-5.256-32.627-5.256-32.627l-.806-1.032s-5.256,11.976-10.022,17.839-11.731,10.893-12.95,10.648c-2.812,0-5.953-4.889-8.8-10.919s-3.025-23.353-3.173-24.424-1.741-3.225-1.838-4.128c3.057,5.256,7.926,3.708,7.926,3.708-3.528.077-5.359-6.52-5.359-6.52v-.09l-1.722-4.547c.193.219,4.224,4.727,8.12,1.935,3.992-2.851,6.049-8.384,6.049-8.384v7.094s.239,1.1.606,1.1a86.516,86.516,0,0,1-1.767,11.151c-1.812,8.468-4.3,16.646-4.3,16.646a21.025,21.025,0,0,0,9.1-12.95,39.173,39.173,0,0,0,1.206-11.119,27.874,27.874,0,0,0-.542-4.65,1.025,1.025,0,0,0-.032-.135.234.234,0,0,0,0-.064h0l.645,1.38,1.238,3.07c1.438,11.918-1.528,29.88-1.528,29.88,4.321-5.379,5.217-17.271,5.03-20.161-.084-1.38-.193-3.083-.264-4.476-.1-1.522-.161-2.676-.161-2.676l8.842,5.276-1.632-5.159,6.449,5.159s5.8,6.965,11.731,7.778,27.777.329,27.777.329-18.98,1.219-24.507,2.851-6.6,3.5-6.6,3.5c4.005,20.373,26.171,27.242,26.861,27.448C228.755,232.677,219.4,215.58,219.4,215.58s-.329,9.616,1.219,13.279,10.674,12.628,22.4,14.5a27.009,27.009,0,0,0,2.922.3c9.893.464,18.058-4.592,18.922-5.159l.071-.045h0c-.316.484-4.373,6.185-20.754,6.81-.993.039-1.935.032-2.9,0h0a31.67,31.67,0,0,1-22.914-10.751s-5.617,3.018-2.032,7.494l.116.142a25.837,25.837,0,0,0,6.14,4.244l.226.129c3.328,1.838,7.23,3.734,10.248,5.3h.045a38.2,38.2,0,0,1,4.2,2.406h0c.851.645,1.025,1.019.193,1.116-4.237.49-20.283-3.012-20.934-2.038s.793,3.5.793,3.5c14.73,7.3,46.248,3.7,47.241,3.592-26.481,6.817-48.086-1.761-48.086-1.761l.716,2.528a94.376,94.376,0,0,0,25.6,4.4c13.853.322,22.489-3.225,22.489-3.225Z" transform="translate(-69.031 -28.42)" fill="#ffe277" opacity="0.5"/>
    <path id="Path_3126" data-name="Path 3126" d="M300.31,216.87s10.487.574,17.413,2.406l-3.566,5.417A47.576,47.576,0,0,0,300.31,216.87Z" transform="translate(-113.28 -43.493)" opacity="0.5" fill="url(#linear-gradient-22)"/>
    <path id="Path_3127" data-name="Path 3127" d="M301.41,261.71s-6.546,5.463-12.982,7.984a43.431,43.431,0,0,1-12.628,2.773s3.7,1.1,12.8-.368,12.254-6.4,12.254-6.4Z" transform="translate(-104.577 -59.414)" opacity="0.5" fill="url(#linear-gradient-23)"/>
    <path id="Path_3128" data-name="Path 3128" d="M305,289.427h0c-12.112,3.128-27.487-1.361-27.358-1.935s4.211.245,13.679-1.651c9.177-1.838,12.505-5.1,12.705-5.3-.077.555-1.341,1.774-1.7,3.1C302.076,284.558,303.792,287.344,305,289.427Z" transform="translate(-105.23 -66.1)" opacity="0.5" fill="url(#linear-gradient-24)"/>
    <path id="Path_3129" data-name="Path 3129" d="M249.223,211.186c-10.319,1.051-13.131,3.934-13.131,3.934-2.909.368-9.442-7.094-9.442-7.094l-.851-.98s-5.256,11.976-10.022,17.839c-.568.7-1.167,1.387-1.786,2.051l.677-1.522s1.109-.529,1.432-6.353-2.444-14.5-2.464-15.678-.426-7.152-.426-7.152l8.842,5.276-1.632-5.159,6.449,5.159s2.522,3.792,8.887,6.952A29.858,29.858,0,0,0,249.223,211.186Z" transform="translate(-82.354 -36.164)" opacity="0.5" fill="url(#linear-gradient-25)"/>
    <path id="Path_3130" data-name="Path 3130" d="M232.73,212.556l6.166-.806a46.352,46.352,0,0,0,7.4,3.644l-4.121,6.082s1.638,8.668,6.333,13.544a64.5,64.5,0,0,1-9.165-6.343c-2.264-1.926-4.383-4.236-5.024-6.395Z" transform="translate(-89.284 -41.675)" fill="#ffe277" opacity="0.5"/>
    <path id="Path_3131" data-name="Path 3131" d="M176.94,180.88l1.761,4.637s1.793,6.256,5.359,6.52,7.049-10.493,7.049-10.493V174.45s-3.792,8.126-7.887,9.029A6.083,6.083,0,0,1,176.94,180.88Z" transform="translate(-69.475 -28.431)" opacity="0.5" fill="url(#linear-gradient-26)"/>
    <path id="Path_3132" data-name="Path 3132" d="M210,173.436s3.18,6.353,7.094,8.307c0,0-4.65-11.286-3.67-17.923C213.412,163.82,211.7,164.884,210,173.436Z" transform="translate(-81.214 -24.656)" opacity="0.5" fill="url(#linear-gradient-27)"/>
    <path id="Path_3133" data-name="Path 3133" d="M328.316,193.32l1.1,3.541,1.109,29.054a70.354,70.354,0,0,1-4.792-13.421l1.025-1.58S328.484,199.963,328.316,193.32Z" transform="translate(-122.306 -35.131)" opacity="0.76" fill="url(#linear-gradient-28)"/>
    <path id="Path_3134" data-name="Path 3134" d="M381.893,206.58s-.645,14.272,5.443,15.478l.3,1.561S379.791,223.322,381.893,206.58Z" transform="translate(-142.121 -39.839)" opacity="0.5" fill="url(#linear-gradient-29)"/>
    <path id="Path_3135" data-name="Path 3135" d="M359.238,212.71s-.232.509-2.438-1.09c0,0-7.63,5.4-10.57,13.021,0,0,4.7-7,7.2-7.739s3.109,2.038,3.109,2.038A21.3,21.3,0,0,1,359.238,212.71Z" transform="translate(-129.585 -41.629)" opacity="0.3" fill="url(#linear-gradient-30)"/>
    <path id="Path_3136" data-name="Path 3136" d="M175.681,196s2.934,5.411,8.436,3.715c0,0-3.3,2.219-6.6.413C177.52,200.108,175.469,196.593,175.681,196Z" transform="translate(-69.023 -36.082)" opacity="0.5" fill="url(#linear-gradient-31)"/>
    <path id="Path_3137" data-name="Path 3137" d="M201.924,185.35s4.037,15.091-6.494,26.442a17.5,17.5,0,0,0,8.384-11.641A24.991,24.991,0,0,0,201.924,185.35Z" transform="translate(-76.041 -32.301)" opacity="0.5" fill="url(#linear-gradient-32)"/>
    <path id="Path_3138" data-name="Path 3138" d="M310.23,166.65s-.451,6.81-3.721,11.7-9.739,8.184-9.739,8.184,8.126-2.992,11.854-7.2S310.23,166.65,310.23,166.65Z" transform="translate(-112.023 -25.661)" opacity="0.5" fill="url(#linear-gradient-33)"/>
    <path id="Path_3139" data-name="Path 3139" d="M252.4,150.76a43.1,43.1,0,0,0,1.812,11.5c1.832,5.8,17.742,15.949,17.742,15.949s-16.394-6.817-19.574-12.937S252.4,150.76,252.4,150.76Z" transform="translate(-95.763 -20.019)" opacity="0.5" fill="url(#linear-gradient-34)"/>
    <path id="Path_3140" data-name="Path 3140" d="M252.9,192.818v9.274s21.354-.174,45.3,1.412l.548-8.345a416.984,416.984,0,0,0-45.848-2.341Z" transform="translate(-96.446 -34.951)" fill="url(#linear-gradient-35)"/>
    <path id="Path_3141" data-name="Path 3141" d="M258.908,195.972c0-.161.084-.239.226-.232l4.327.129a3.1,3.1,0,0,1,1.09.2,1.864,1.864,0,0,1,.716.477,1.818,1.818,0,0,1,.381.735,3.153,3.153,0,0,1,.1.948l-.032,1.193a3.508,3.508,0,0,1-.155.942,1.709,1.709,0,0,1-1.174,1.148,3.283,3.283,0,0,1-1.1.129l-2.328-.071-.484-1.367h-.064l-.039,1.348-1.632-.052Zm1.509,4.082,2.767.084a.9.9,0,0,0,.645-.187,1.032,1.032,0,0,0,.219-.722l.032-.967a1.051,1.051,0,0,0-.181-.742.948.948,0,0,0-.645-.213l-2.644-.077a.1.1,0,0,0-.09,0,.116.116,0,0,0-.032.077Z" transform="translate(-98.52 -35.99)" fill="#ebefff"/>
    <path id="Path_3142" data-name="Path 3142" d="M272.289,198.566h-.052l-.052,1.728a.1.1,0,0,0,.1.116l4.869.148-.045,1.5-6.378-.193a.213.213,0,0,1-.226-.245l.161-5.295a.213.213,0,0,1,.239-.232l6.191.193a.206.206,0,0,1,.232.245l-.045,1.5-1.529.516h-.064v-.774c0-.058,0-.084-.077-.084l-3.276-.1a.11.11,0,0,0-.084,0,.175.175,0,0,0,0,.077v.722l2.689.077-.032,1.174-2.257-.065Z" transform="translate(-102.698 -36.113)" fill="#ebefff"/>
    <path id="Path_3143" data-name="Path 3143" d="M287.042,198.607h-.064v-.645c0-.065,0-.1-.09-.1l-3.044-.09a.271.271,0,0,0-.232.064.3.3,0,0,0-.071.2v.142a.3.3,0,0,0,.045.219.49.49,0,0,0,.213.077l3.566.606a2.341,2.341,0,0,1,.574.168,1.128,1.128,0,0,1,.38.271.928.928,0,0,1,.2.406,1.934,1.934,0,0,1,.045.568v.458a2.012,2.012,0,0,1-.1.645,1.1,1.1,0,0,1-.3.451,1.238,1.238,0,0,1-.529.264,2.708,2.708,0,0,1-.8.071l-5.159-.155.045-1.5,4.6.135a.355.355,0,0,0,.277-.065.426.426,0,0,0,.077-.264v-.155a.277.277,0,0,0-.045-.213.3.3,0,0,0-.2-.084l-3.437-.542a2.528,2.528,0,0,1-.593-.161,1.058,1.058,0,0,1-.4-.264.877.877,0,0,1-.219-.393,1.766,1.766,0,0,1-.058-.548v-.406a1.354,1.354,0,0,1,.361-.961,1.541,1.541,0,0,1,1.122-.31l5.159.155a.226.226,0,0,1,.239.264l-.039,1.187Z" transform="translate(-106.662 -36.258)" fill="#ebefff"/>
    <path id="Path_3144" data-name="Path 3144" d="M293.4,202.546l.174-5.766,1.632.052-.174,5.766Z" transform="translate(-110.826 -36.359)" fill="#ebefff"/>
    <path id="Path_3145" data-name="Path 3145" d="M302.4,200.383v-.271a2.255,2.255,0,0,0,0-.239V199.8l1.612.045-.084,2.831c0,.148-.071.219-.206.219l-4.34-.135a3.3,3.3,0,0,1-1.09-.193,1.715,1.715,0,0,1-1.1-1.219,3.154,3.154,0,0,1-.1-.948l.039-1.187a3.108,3.108,0,0,1,.155-.948,1.69,1.69,0,0,1,.426-.7,1.76,1.76,0,0,1,.742-.439,3.141,3.141,0,0,1,1.1-.129l4.321.129a.206.206,0,0,1,.219.245l-.039,1.245-1.528.51h-.065v-.555c0-.052,0-.077-.071-.077l-2.754-.084a1.469,1.469,0,0,0-.4,0,.548.548,0,0,0-.271.142.645.645,0,0,0-.161.277,1.972,1.972,0,0,0-.064.439v1.019a1.032,1.032,0,0,0,.174.735.909.909,0,0,0,.645.226l2.734.077c.058,0,.09,0,.09-.09Z" transform="translate(-112.138 -36.434)" fill="#ebefff"/>
    <path id="Path_3146" data-name="Path 3146" d="M311.588,197.331a.374.374,0,0,1,.393.239l2.057,4.211a.187.187,0,0,0,.148.1h.09a.11.11,0,0,0,.129-.123l.129-4.34,1.483.045-.168,5.54a.194.194,0,0,1-.226.219l-2.348-.071a.477.477,0,0,1-.245-.052.464.464,0,0,1-.155-.187l-2.141-4.2a.148.148,0,0,0-.142-.1h-.084a.11.11,0,0,0-.129.123l-.129,4.334-1.483-.045.168-5.534c0-.155.077-.232.226-.226Z" transform="translate(-116.284 -36.53)" fill="#ebefff"/>
    <path id="Path_3147" data-name="Path 3147" d="M288.854,147.937a26.306,26.306,0,0,1-4.276,13,15.584,15.584,0,0,1-5.585,5.192,33.538,33.538,0,0,1-7.584-4.573A38.7,38.7,0,0,1,259,143.171a42.615,42.615,0,0,0,13.9,18.258,27.914,27.914,0,0,0,6.069,3.56v-3a19.924,19.924,0,0,1-2-.877c-7.61-3.837-11.609-11.835-13.479-17.007h0a36.765,36.765,0,0,1-1.406-4.766h1.38l-.451.967v.032c.219.98.471,1.935.755,2.818a.231.231,0,0,0,0,.071,28.823,28.823,0,0,0,15.22,17.723,19.019,19.019,0,0,0,7.462-14.537V145.19l1.425.426Z" transform="translate(-98.612 -15.964)" opacity="0.5" fill="url(#linear-gradient-36)"/>
    <path id="Path_3148" data-name="Path 3148" d="M374.765,203.21s-2.07,6.752-.11,17.265c0,0,.974-13.318,1.709-14.479s2.786-.613,2.786-.613a46.525,46.525,0,0,0-4.386-2.173Z" transform="translate(-139.378 -38.642)" opacity="0.3" fill="url(#linear-gradient-37)"/>
    <path id="Path_3149" data-name="Path 3149" d="M337.623,231.395a27.52,27.52,0,0,1-6.133-8.539c-4.321-8.636-5.559-14.4-5.759-15.407l1.025-1.58,1.374-13.286,1.29-.768a54.355,54.355,0,0,0,8.094-12.705,3.622,3.622,0,0,1,.174.555h0c.7,2.76,2.148,13.1,3.489,16.768a8.449,8.449,0,0,0,3.134,4.231s-7.939,11.776-8.326,20.18C335.61,228.518,337.313,231.008,337.623,231.395Z" transform="translate(-122.306 -30.085)" fill="#ffe277" opacity="0.5"/>
    <path id="Path_3150" data-name="Path 3150" d="M258.209,290.012s-14.311-2.348-20.154-6.114h0a4.36,4.36,0,0,0,.071-.954c-.123-3.225-2.909-6.082-3.3-7.913.064.174.484,1.142,2.515,2.883a43.167,43.167,0,0,0,6.14,4.244l.226.129c4.128,2.438,7.681,4.089,10.248,5.3H254c2.309,1.083,3.805,1.8,4.2,2.406Z" transform="translate(-90.03 -64.143)" opacity="0.5" fill="url(#linear-gradient-38)"/>
    <path id="Path_3151" data-name="Path 3151" d="M304.024,280.59c-.077.555-1.341,1.774-1.7,3.1,0,0-5.25,5.559-24.681,3.87.129-.548,4.211.245,13.679-1.651C300.5,284.079,303.824,280.79,304.024,280.59Z" transform="translate(-105.231 -66.118)" opacity="0.5" fill="url(#linear-gradient-39)"/>
    <path id="Path_3152" data-name="Path 3152" d="M291.05,148.931l-12.421,4-3.637,1.69h-5.585l-2,.161-1.058.077-3.012.239-1.516.123-14.9-5.392-2.67-.942L232,144.449l1.116-.439c8.223-3.257,16.291-7.21,16.291-7.21l3.1-3.805h1.38a45.888,45.888,0,0,0,2.58-7.2l.819-3.683c.058-.355.084-.548.084-.548l4.386,2.315L276.539,135.7c0,.806,0,1.528.058,2.141l.213,1.49c.039-.29.052-.458.052-.458l1.425.426.974,2.322s1.651,2.58,8.191,5.443a38.9,38.9,0,0,1,3.6,1.864Z" transform="translate(-89.025 -9.651)" fill="#ffe277" opacity="0.5"/>
    <path id="Path_3153" data-name="Path 3153" d="M295.51,119.111a20.231,20.231,0,0,1-12.183-1.793c-6.391-3.1-11.764-12.254-12.092-14.5s2.444-8.229,2.444-12.9-2.277-12.628,1.548-16.949,21.425-4.966,27.132.574c0,0,1.767,4.437,1.767,6.946a18.28,18.28,0,0,1-.271,2.522c-.052.381-.123.787-.187,1.206-.51,3.038-1.213,6.746-.884,8.384a8.151,8.151,0,0,0,.509,1.587h0c.7,1.625,1.748,2.922,1.935,4.327C305.475,100.375,303.011,113.409,295.51,119.111Z" transform="translate(-102.947 8.812)" fill="url(#linear-gradient-40)"/>
    <path id="Path_3154" data-name="Path 3154" d="M270.462,96.921s-1.58-3.966-5.553-4.031c0,0-2.322.922-2.689,2.689a73.972,73.972,0,0,0,1.832,9.41c.974,2.96,4.566,2.58,4.566,2.58A15.214,15.214,0,0,0,270.462,96.921Z" transform="translate(-99.755 0.529)" fill="url(#linear-gradient-41)"/>
    <path id="Path_3155" data-name="Path 3155" d="M298.63,119.109a3.644,3.644,0,0,1,1.9.322,12.923,12.923,0,0,0,5.276,3c2.631.555,4.385-1.69,4.947-1.806s1.174.677,1.174.677a2.206,2.206,0,0,0-1.606-1.329s-.555,2.109-4.366,1.387a10.47,10.47,0,0,1-5.424-2.412l-.194-.348a10.465,10.465,0,0,0-1.7.509Z" transform="translate(-112.683 -8.6)" fill="url(#linear-gradient-42)"/>
    <path id="Path_3157" data-name="Path 3157" d="M289.4,86.624s.368-2.4,4.418-3.36C298.332,82.193,302,81.29,302,81.29s-.8,2.631-2.3,3.618a38.093,38.093,0,0,0-7.2.381C290.084,85.843,289.4,86.624,289.4,86.624Z" transform="translate(-109.406 4.648)" fill="#38368e"/>
    <path id="Path_3158" data-name="Path 3158" d="M319.7,84.57a14.019,14.019,0,0,0-3.87,5.979s1.5-1.935,2.87-1.935a.787.787,0,0,1,.793.948A8.8,8.8,0,0,0,319.7,84.57Z" transform="translate(-118.791 3.483)" fill="#38368e"/>
    <path id="Path_3159" data-name="Path 3159" d="M291.75,96.593s.245-5.069,5.192-6.353a10.319,10.319,0,0,1,1.935,4.889S296.271,94.638,291.75,96.593Z" transform="translate(-110.241 1.47)" fill="url(#linear-gradient-43)"/>
    <path id="Path_3160" data-name="Path 3160" d="M313.73,100.177s.4-4.037,2.715-5.527c0,0,1.58,1.18,1.419,4.56C317.864,99.21,316.484,98.745,313.73,100.177Z" transform="translate(-118.045 -0.096)" fill="url(#linear-gradient-44)"/>
    <path id="Path_3161" data-name="Path 3161" d="M291.75,99.245s1.606,1.98,6.107,2.367a7.049,7.049,0,0,0,.774-3.87S294.491,97.355,291.75,99.245Z" transform="translate(-110.241 -1.182)" fill="#ffebed"/>
    <path id="Path_3162" data-name="Path 3162" d="M313.73,102.647v.593s.69,1.445,3.173,1.69a6.979,6.979,0,0,0,.871-3.27S316.194,101.261,313.73,102.647Z" transform="translate(-118.045 -2.566)" fill="#ffebed"/>
    <path id="Path_3163" data-name="Path 3163" d="M298.633,97.586a5.573,5.573,0,0,0-1.038,3.579,17.572,17.572,0,0,0,2.335.387,6.069,6.069,0,0,0,.774-3.87A6.307,6.307,0,0,0,298.633,97.586Z" transform="translate(-112.313 -1.123)" fill="#7f9ec9"/>
    <path id="Path_3164" data-name="Path 3164" d="M316.957,101.7a4.775,4.775,0,0,0-.768,2.818,4.85,4.85,0,0,0,1.587.387,5.856,5.856,0,0,0,.871-3.27A2.825,2.825,0,0,0,316.957,101.7Z" transform="translate(-118.918 -2.541)" fill="#7f9ec9"/>
    <path id="Path_3165" data-name="Path 3165" d="M298.6,101.306s-.406-2.741,1.161-3.786l1.29.161a5.54,5.54,0,0,1-.774,3.87S299,101.4,298.6,101.306Z" transform="translate(-112.657 -1.115)" fill="#38368e"/>
    <path id="Path_3166" data-name="Path 3166" d="M317.791,101.589a11.7,11.7,0,0,0-.851,3.115,3.58,3.58,0,0,0,1.1.206,5.334,5.334,0,0,0,.871-3.27A2.58,2.58,0,0,0,317.791,101.589Z" transform="translate(-119.185 -2.546)" fill="#38368e"/>
    <path id="Path_3167" data-name="Path 3167" d="M291.75,99.15s2.992-1.741,8.094-.748l-.948-.716A8.539,8.539,0,0,0,291.75,99.15Z" transform="translate(-110.241 -1.088)" fill="#131163"/>
    <path id="Path_3168" data-name="Path 3168" d="M313.73,102.42a8.055,8.055,0,0,1,5.2-.6l-1.154-.832A5.535,5.535,0,0,0,313.73,102.42Z" transform="translate(-118.045 -2.339)" fill="#131163"/>
    <path id="Path_3169" data-name="Path 3169" d="M296.77,100.082a1.786,1.786,0,0,1,1.548.568,1.419,1.419,0,0,1-1.548-.568Z" transform="translate(-112.023 -2.02)" fill="#fff"/>
    <path id="Path_3170" data-name="Path 3170" d="M315.43,103.73s1.29-.252,1.722.335C317.152,104.066,316.443,104.53,315.43,103.73Z" transform="translate(-118.649 -3.301)" fill="#fff"/>
    <path id="Path_3171" data-name="Path 3171" d="M292.21,100.55a11.731,11.731,0,0,0,6.056,2.87l.1-1.354-.342.574A11.629,11.629,0,0,1,292.21,100.55Z" transform="translate(-110.404 -2.191)" fill="#c6659c"/>
    <path id="Path_3172" data-name="Path 3172" d="M313.73,104.14s.413,1.483,3.444,2.154l-.1-.722-.174.258A5.192,5.192,0,0,1,313.73,104.14Z" transform="translate(-118.045 -3.466)" fill="#c6659c"/>
    <path id="Path_3173" data-name="Path 3173" d="M304.3,113.293a10.753,10.753,0,0,1,3.225,0c2.077.245,4.418.813,5.695,0a7.642,7.642,0,0,1-3.167,1.935c-1.47.239-3.708-1.032-3.708-1.032h-.974a2.7,2.7,0,0,1-1.071-.9Z" transform="translate(-114.697 -6.673)" fill="#cb5f7d"/>
    <path id="Path_3174" data-name="Path 3174" d="M306.15,114.674a1.586,1.586,0,0,1,.935-.245c.426.084.864.7.864.7a4.263,4.263,0,0,0-1.8-.458Z" transform="translate(-115.354 -7.118)" fill="#9f4a8b"/>
    <path id="Path_3177" data-name="Path 3177" d="M302.868,98.066c-.858-1.793-.329-2.728-7.778-3.7-10.545-1.387-11.448,1.832-13.24,1.341a1.721,1.721,0,0,1-.213-.077c-1.935-.755-6.514-5.25-6.63-11.306a16.632,16.632,0,0,1,4.1-10.757c-1.528-1.29-2.141-5-.49-6.6s4.463-1.219,11.364-.49,6.907.31,6.907.31a6.6,6.6,0,0,1,3.805,3.276c.071.129.1.206.1.206l.858-.793a11.235,11.235,0,0,1,1.9,7.023s3.786-7.7,3.354-8.79a29.263,29.263,0,0,0-3.109-5.159h0s-.613-5.862-2.444-5.862-9.674,1.767-9.674,1.767a11.1,11.1,0,0,0,.735-4.334l-.032.032c-2.58,2.29-5.05,2.541-8.584,4.179a8.946,8.946,0,0,0-3.309,2.4l-.239.284-.252.3a10.567,10.567,0,0,1-.8.948.211.211,0,0,1-.039.039h0a10.113,10.113,0,0,1-1.025.961c-2.322,1.89-7.43,3.154-8.042,5.159s.774,4.721,1.509,7.533a15.306,15.306,0,0,1,.393,5.295,10.4,10.4,0,0,1,1.625,7.739c-.716,4.108-2.283,4.779-2.283,4.779a7.037,7.037,0,0,0-.58,4.379c2.257,8.977,11.609,14.324,11.609,14.324,8.307,3.1,13.769,1.748,13.769,1.748h0c6.043-3.941,8.113-16.981,8.2-17.587C304.229,96.8,303.107,98.543,302.868,98.066Zm-3.728,8.313c-1.464-.245-1.774-3.953-2.257-4.444s-3.141-.284-3.141-.284-2.444,2.773-3.418,2.851-6.191-2.038-5.063-5.211,5.063-3.586,5.063-3.586a9.545,9.545,0,0,0,5.089,1.935c3.057.2,4.16-.361,4.515-.522s2.335.729,2.283,3.5c.013,1.9-1.587,6-3.057,5.759Z" transform="translate(-102.494 14.295)" fill="url(#linear-gradient-45)"/>
    <path id="Path_3178" data-name="Path 3178" d="M314.132,106.21s2.631,3.27,2.38,4.515c-.271,1.348-3.321,2.064-3.321,2.064s2.444-.845,2.947-2.064a16.381,16.381,0,0,0-2.006-4.515Z" transform="translate(-117.853 -4.201)" fill="#d2726c"/>
    <path id="Path_3179" data-name="Path 3179" d="M321.026,81.151a11.235,11.235,0,0,0-1.9-7.023,18.761,18.761,0,0,0,2.135-6.907h0a23.674,23.674,0,0,1,.993,4.579l2.115.555C324.812,73.45,321.026,81.151,321.026,81.151Z" transform="translate(-119.962 9.643)" opacity="0.6" fill="url(#linear-gradient-46)"/>
    <path id="Path_3181" data-name="Path 3181" d="M289.19,144.3a31.054,31.054,0,0,1,7.655-.535c4.611.181,7.255.2,6.114,2.283C302.959,146.048,297.174,147.357,289.19,144.3Z" transform="translate(-109.332 -17.519)" opacity="0.5" fill="url(#linear-gradient-47)"/>
    <path id="Path_3182" data-name="Path 3182" d="M310.332,59.506s2.8-1.09,3.908-.916a2.173,2.173,0,0,0-.9-.7c-.458-.123-9.674,1.935-9.674,1.935S309.423,59.138,310.332,59.506Z" transform="translate(-114.473 12.959)" fill="url(#linear-gradient-48)"/>
    <path id="Path_3183" data-name="Path 3183" d="M296.419,61.952S296.2,65,295.226,66.106l-11.409,1.458-3.347-.593a8.293,8.293,0,0,0,2.715-2.212C284.61,63.1,292.053,61.469,296.419,61.952Z" transform="translate(-106.235 11.544)" fill="url(#linear-gradient-49)"/>
    <path id="Path_3184" data-name="Path 3184" d="M322.44,67.22a25.683,25.683,0,0,1,1.006,4.585l2.115.555a15.267,15.267,0,0,0-3.122-5.14Z" transform="translate(-121.138 9.643)" fill="url(#linear-gradient-50)"/>
    <path id="Path_3185" data-name="Path 3185" d="M270.4,103.553s-.806-3.87-2.773-5.753a4.618,4.618,0,0,0-4.2-1.29s.613,7.139,1.251,8.881a3.807,3.807,0,0,0,1.619,2.2,5.5,5.5,0,0,1-1.554-3.566c-.187-2.36-.245-5.695.271-6.088s2.618,1.148,2.618,1.148A7.055,7.055,0,0,0,266.567,102c-.4,2.1,1.071,3.631,1.619,3.6s-.032-2.438.065-3.128S269.56,101.953,270.4,103.553Z" transform="translate(-100.182 -0.724)" opacity="0.8" fill="url(#linear-gradient-51)"/>
    <path id="Path_3186" data-name="Path 3186" d="M270.114,100.07a4.811,4.811,0,0,0-1.935,4.3c.232,2.9,1.89,2.767,1.9,2.161a17.854,17.854,0,0,1-.148-3.057c.168-.884,1.593-.484,1.593-.484A20.537,20.537,0,0,0,270.114,100.07Z" transform="translate(-101.865 -2.021)" opacity="0.8" fill="url(#linear-gradient-52)"/>
    <path id="Path_3187" data-name="Path 3187" d="M318.75,120.05s-2.67,12.17-8.21,17.594C310.54,137.644,316.86,135.161,318.75,120.05Z" transform="translate(-116.912 -9.115)" fill="#34c7ff"/>
    <path id="Path_3188" data-name="Path 3188" d="M318.68,57.89s1.406,1.1,1.67,4.9a21.849,21.849,0,0,1-1.38,8.029,15.3,15.3,0,0,0,2.322-6.623C321.466,60.728,319.8,58.329,318.68,57.89Z" transform="translate(-119.803 12.956)" fill="#34c7ff"/>
    <path id="Path_3189" data-name="Path 3189" d="M292.24,70.142a33.035,33.035,0,0,0,6.83,1.425l4.308.387a8.394,8.394,0,0,0-4.515-1.812A31.009,31.009,0,0,0,292.24,70.142Z" transform="translate(-110.415 8.669)" fill="url(#linear-gradient-53)"/>
    <path id="Path_3190" data-name="Path 3190" d="M316.622,119.677a2.453,2.453,0,0,1,2.173,1.935,16.274,16.274,0,0,1,.645,2.9l.548-2.141s-.716-2.715-1.464-3.321a3.052,3.052,0,0,0-1.935-.78Z" transform="translate(-119.061 -8.477)" fill="url(#linear-gradient-54)"/>
    <path id="Path_3191" data-name="Path 3191" d="M310.13,117.43l.264,2.322a8.223,8.223,0,0,0,3.154-.368l.226-1.406A17.8,17.8,0,0,0,310.13,117.43Z" transform="translate(-116.767 -8.185)" fill="url(#linear-gradient-55)"/>
    <path id="Path_3192" data-name="Path 3192" d="M323.56,164s11.112,8.113,12.55,10.906,2.025,11.544,3.979,15.336c0,0-1.335-6.2-2.27-11.061s-.709-4.927-1.232-6.114S327.771,166.09,323.56,164Z" transform="translate(-121.535 -24.72)" fill="#34c7ff"/>
    <path id="Path_3193" data-name="Path 3193" d="M317.653,234s-5.353,22.927-5.108,24.475,3.708,4.708,3.87,5.572c0,0-2.651,3.547-2.528,4.334s4.644,5.753,4.515,7.294c-.032.445-2.967,5.282-2.967,5.282s3.315-4.753,3.476-5.514-4.057-7.094-4.186-7.739c-.316-1.67,2.109-2.9,2.193-4s-3.289-3.786-3.315-5.579S317.653,234,317.653,234Z" transform="translate(-117.622 -49.575)" fill="#34c7ff"/>
    <path id="Path_3194" data-name="Path 3194" d="M322.16,318.73s11.577,26.21,15.524,52.414C337.684,371.144,337.026,345.566,322.16,318.73Z" transform="translate(-121.038 -79.66)" fill="#34c7ff"/>
    <path id="Path_3195" data-name="Path 3195" d="M205.636,150.5a6.647,6.647,0,0,1-4.237-3.225c-1.245-2.58-.432-6.4-.432-6.4a65.931,65.931,0,0,0,3.515,6.037C205.649,148.426,205.965,150.173,205.636,150.5Z" transform="translate(-77.914 -16.511)" fill="#ffbcaf"/>
    <path id="Path_3196" data-name="Path 3196" d="M351.658,131.751l2.077,59.2a4.36,4.36,0,0,0,4.36,4.211H460.078a4.366,4.366,0,0,0,4.36-4.263l1.425-59.888a4.36,4.36,0,0,0-4.386-4.469l-105.492.69a4.366,4.366,0,0,0-4.328,4.521Z" transform="translate(-131.511 -11.419)" fill="#36d1f7" opacity="0.6"/>
    <path id="Path_3197" data-name="Path 3197" d="M459.993,195.233H358.009a4.515,4.515,0,0,1-4.515-4.366l-2.077-59.2a4.515,4.515,0,0,1,4.515-4.682l105.492-.69a4.516,4.516,0,0,1,4.514,4.631l-1.432,59.895A4.515,4.515,0,0,1,459.993,195.233Zm1.438-68.621h0l-105.485.69a4.2,4.2,0,0,0-4.173,4.353l2.077,59.2a4.186,4.186,0,0,0,4.2,4.057H459.993a4.224,4.224,0,0,0,4.2-4.1l1.432-59.895a4.2,4.2,0,0,0-4.2-4.3Z" transform="translate(-131.426 -11.331)" fill="#744ca2"/>
    <path id="Path_3198" data-name="Path 3198" d="M351.858,134.784H465.8l.181-3.121a4.785,4.785,0,0,0-4.811-5.063l-105.446.832a3.953,3.953,0,0,0-3.921,4.031Z" transform="translate(-131.562 -11.441)" opacity="0.6" fill="url(#linear-gradient-56)"/>
    <path id="Path_3199" data-name="Path 3199" d="M295.48,109.631V143.9h34.878V109.45Z" transform="translate(-69.451 18.485)" opacity="0.3" fill="url(#linear-gradient-57)"/>
    <rect id="Rectangle_86" data-name="Rectangle 86" width="15.169" height="15.169" transform="translate(294.604 130.418)" opacity="0.3" fill="url(#linear-gradient-58)"/>
    <rect id="Rectangle_87" data-name="Rectangle 87" width="15.169" height="15.169" transform="translate(312.508 130.418)" opacity="0.3" fill="url(#linear-gradient-57)"/>
    <rect id="Rectangle_88" data-name="Rectangle 88" width="15.169" height="15.169" transform="translate(276.411 130.418)" opacity="0.3" fill="url(#linear-gradient-57)"/>
    <rect id="Rectangle_89" data-name="Rectangle 89" width="38.793" height="3.631" transform="translate(288.884 154.436)" fill="#d1d4fb"/>
    <rect id="Rectangle_90" data-name="Rectangle 90" width="48.499" height="1.122" transform="translate(279.178 159.963)" fill="#d1d4fb"/>
    <rect id="Rectangle_91" data-name="Rectangle 91" width="9.281" height="1.122" transform="translate(279.636 147.522)" fill="#d1d4fb"/>
    <rect id="Rectangle_92" data-name="Rectangle 92" width="9.281" height="1.122" transform="translate(297.552 147.522)" fill="#d1d4fb"/>
    <rect id="Rectangle_93" data-name="Rectangle 93" width="9.281" height="1.122" transform="translate(315.455 147.522)" fill="#d1d4fb"/>
    <rect id="Rectangle_94" data-name="Rectangle 94" width="15.601" height="1.122" transform="translate(276.411 161.788)" fill="#d1d4fb"/>
    <rect id="Rectangle_95" data-name="Rectangle 95" width="48.499" height="1.122" transform="translate(279.178 163.6)" fill="#d1d4fb"/>
    <rect id="Rectangle_96" data-name="Rectangle 96" width="51.266" height="1.122" transform="translate(276.411 165.406)" fill="#d1d4fb"/>
    <rect id="Rectangle_97" data-name="Rectangle 97" width="51.266" height="1.122" transform="translate(276.411 167.212)" fill="#d1d4fb"/>
    <rect id="Rectangle_98" data-name="Rectangle 98" width="48.499" height="1.122" transform="translate(279.178 174.512)" fill="#d1d4fb"/>
    <rect id="Rectangle_99" data-name="Rectangle 99" width="51.266" height="1.122" transform="translate(276.411 176.318)" fill="#d1d4fb"/>
    <rect id="Rectangle_100" data-name="Rectangle 100" width="51.266" height="1.122" transform="translate(276.411 178.124)" fill="#d1d4fb"/>
    <rect id="Rectangle_101" data-name="Rectangle 101" width="49.208" height="1.122" transform="translate(276.411 169.018)" fill="#d1d4fb"/>
    <rect id="Rectangle_102" data-name="Rectangle 102" width="48.499" height="1.122" transform="translate(279.178 170.823)" fill="#d1d4fb"/>
    <rect id="Rectangle_103" data-name="Rectangle 103" width="41.54" height="1.122" transform="translate(276.411 172.629)" fill="#d1d4fb"/>
    <g id="Group_2772" data-name="Group 2772" transform="translate(225.868 135.662)">
      <path id="Path_3200" data-name="Path 3200" d="M370.462,178.241a9.926,9.926,0,1,1,9.919-9.923A9.925,9.925,0,0,1,370.462,178.241Zm0-19.2a9.281,9.281,0,1,0,9.274,9.276A9.281,9.281,0,0,0,370.462,159.041Z" transform="translate(-360.53 -158.39)" fill="#e0ffff"/>
    </g>
    <circle id="Ellipse_238" data-name="Ellipse 238" cx="5.392" cy="5.392" r="5.392" transform="translate(230.408 140.196)" fill="#fff"/>
    <g id="Group_2773" data-name="Group 2773" transform="translate(250.975 118.01)">
      <path id="Path_3201" data-name="Path 3201" d="M409.385,150.871a9.925,9.925,0,1,1,9.926-9.919A9.925,9.925,0,0,1,409.385,150.871Zm0-19.2a9.29,9.29,0,1,0,0-.019Z" transform="translate(-399.46 -131.02)" fill="#e0ffff"/>
    </g>
    <circle id="Ellipse_239" data-name="Ellipse 239" cx="5.076" cy="5.076" r="5.076" transform="matrix(0.155, -0.988, 0.988, 0.155, 255.09, 132.157)" fill="#fff"/>
    <g id="Group_2774" data-name="Group 2774" transform="translate(224.294 117.591)">
      <path id="Path_3202" data-name="Path 3202" d="M292.79,94.513l.722-1.1,3.921,3.437-.6.838Z" transform="translate(-292.79 -93.41)" fill="#fff"/>
      <path id="Path_3203" data-name="Path 3203" d="M297.59,94.513l-.729-1.1-3.921,3.437.606.838Z" transform="translate(-292.843 -93.41)" fill="#fff"/>
    </g>
    <rect id="Rectangle_104" data-name="Rectangle 104" width="35.11" height="1.761" transform="translate(296.372 118.339)" fill="#fff"/>
    <path id="Path_3204" data-name="Path 3204" d="M118.05,54.89V70.123l18.226.161.245-15.885Z" transform="translate(-6.451 38.032)" fill="url(#linear-gradient-61)"/>
    <path id="Path_3205" data-name="Path 3205" d="M146.555,54.4l1.187,2.006-.593,13.86-.838.019Z" transform="translate(-16.486 38.032)" fill="url(#linear-gradient-62)"/>
    <path id="Path_3206" data-name="Path 3206" d="M123.1,61.788l1.683-2.438,9.1,7.636-1.4,1.864Z" transform="translate(-8.244 36.274)" fill="#fff"/>
    <path id="Path_3207" data-name="Path 3207" d="M134.243,61.788,132.56,59.35l-9.1,7.636,1.4,1.864Z" transform="translate(-8.372 36.274)" fill="#fff"/>
    <path id="Path_3208" data-name="Path 3208" d="M211.486,336.4H149.128a5.114,5.114,0,0,1-5.108-4.992l-1.161-51.143a5.1,5.1,0,0,1,5.108-5.224h64.919a5.108,5.108,0,0,1,5.108,5.243l-1.4,51.15a5.108,5.108,0,0,1-5.108,4.966Z" transform="translate(-57.374 -64.147)" opacity="0.81" fill="url(#linear-gradient-63)"/>
    <path id="Path_3209" data-name="Path 3209" d="M211.4,336.464H149.039a5.3,5.3,0,0,1-5.269-5.159l-1.161-51.15a5.263,5.263,0,0,1,5.269-5.385H212.8a5.263,5.263,0,0,1,5.269,5.411l-1.4,51.15a5.243,5.243,0,0,1-5.269,5.134Zm-63.519-61.359a4.934,4.934,0,0,0-4.947,5.056l1.161,51.15a4.979,4.979,0,0,0,4.947,4.83H211.4a4.927,4.927,0,0,0,4.947-4.811l1.4-51.143a4.947,4.947,0,0,0-4.947-5.082Z" transform="translate(-57.285 -64.051)" fill="#473da2"/>
    <rect id="Rectangle_105" data-name="Rectangle 105" width="32.795" height="1.406" transform="translate(102.299 221.354)" fill="#fff"/>
    <rect id="Rectangle_106" data-name="Rectangle 106" width="16.394" height="1.406" transform="translate(102.299 224.766)" fill="#fff"/>
    <rect id="Rectangle_107" data-name="Rectangle 107" width="16.394" height="1.406" transform="translate(102.299 227.616)" fill="#fff"/>
    <rect id="Rectangle_108" data-name="Rectangle 108" width="13.047" height="1.406" transform="translate(120.531 227.616)" fill="#fff"/>
    <rect id="Rectangle_109" data-name="Rectangle 109" width="26.436" height="1.406" transform="translate(102.299 230.467)" fill="#fff"/>
    <rect id="Rectangle_110" data-name="Rectangle 110" width="9.41" height="1.406" transform="translate(102.299 233.317)" fill="#fff"/>
    <rect id="Rectangle_111" data-name="Rectangle 111" width="16.272" height="1.406" transform="translate(113.643 241.876)" fill="#fff"/>
    <rect id="Rectangle_112" data-name="Rectangle 112" width="29.493" height="1.406" transform="translate(102.299 236.174)" fill="#fff"/>
    <rect id="Rectangle_113" data-name="Rectangle 113" width="22.689" height="1.406" transform="translate(102.299 239.025)" fill="#fff"/>
    <rect id="Rectangle_114" data-name="Rectangle 114" width="10.674" height="1.406" transform="translate(102.299 241.876)" fill="#fff"/>
    <rect id="Rectangle_115" data-name="Rectangle 115" width="16.394" height="1.406" transform="translate(102.299 244.726)" fill="#fff"/>
    <rect id="Rectangle_116" data-name="Rectangle 116" width="4.702" height="1.406" transform="translate(102.299 247.577)" fill="#fff"/>
    <rect id="Rectangle_117" data-name="Rectangle 117" width="17.065" height="1.406" transform="translate(108.935 247.577)" fill="#fff"/>
    <rect id="Rectangle_118" data-name="Rectangle 118" width="16.272" height="1.406" transform="translate(113.643 250.344)" fill="#fff"/>
    <rect id="Rectangle_119" data-name="Rectangle 119" width="10.674" height="1.406" transform="translate(102.299 250.344)" fill="#fff"/>
    <rect id="Rectangle_120" data-name="Rectangle 120" width="16.394" height="1.406" transform="translate(102.299 253.194)" fill="#fff"/>
    <rect id="Rectangle_121" data-name="Rectangle 121" width="4.702" height="1.406" transform="translate(102.299 256.045)" fill="#fff"/>
    <rect id="Rectangle_122" data-name="Rectangle 122" width="17.065" height="1.406" transform="translate(108.935 256.045)" fill="#fff"/>
    <g transform="matrix(1, 0, 0, 1, 4.76, 9.65)" filter="url(#Path_3210)">
      <path id="Path_3210-2" data-name="Path 3210" d="M505.546,107.253a2.883,2.883,0,1,1-2.883-2.883A2.883,2.883,0,0,1,505.546,107.253Z" transform="translate(-188.86 -13.19)" fill="url(#linear-gradient-64)"/>
    </g>
    <path id="Path_3211" data-name="Path 3211" d="M85.864,210.506a3.592,3.592,0,1,1-3.586-3.586A3.592,3.592,0,0,1,85.864,210.506Z" transform="translate(-34.586 -39.96)" fill="url(#linear-gradient-65)"/>
    <g transform="matrix(1, 0, 0, 1, 4.76, 9.65)" filter="url(#Ellipse_240)">
      <circle id="Ellipse_240-2" data-name="Ellipse 240" cx="2.883" cy="2.883" r="2.883" transform="translate(319.39 91.18)" fill="url(#linear-gradient-66)"/>
    </g>
    <circle id="Ellipse_241" data-name="Ellipse 241" cx="2.038" cy="2.038" r="2.038" transform="translate(139.137 121.48)" fill="url(#linear-gradient-66)"/>
    <circle id="Ellipse_242" data-name="Ellipse 242" cx="2.038" cy="2.038" r="2.038" transform="translate(275.637 211.409)" fill="url(#linear-gradient-68)"/>
    <circle id="Ellipse_243" data-name="Ellipse 243" cx="1.819" cy="1.819" r="1.819" transform="translate(63.983 231.95)" fill="#d2abff"/>
    <path id="Path_3212" data-name="Path 3212" d="M140.193,266.217H108.72a4.7,4.7,0,0,1-4.689-4.515l-.7-20.7a4.7,4.7,0,0,1,4.7-4.856h32.808a4.7,4.7,0,0,1,4.689,4.837l-.645,20.7A4.7,4.7,0,0,1,140.193,266.217Z" transform="translate(-43.337 -50.338)" opacity="0.73" fill="url(#linear-gradient-69)"/>
    <path id="Path_3213" data-name="Path 3213" d="M140.1,266.255H108.632a4.837,4.837,0,0,1-4.85-4.7l-.7-20.7a4.869,4.869,0,0,1,4.856-5.024h32.808a4.856,4.856,0,0,1,4.85,5l-.645,20.7A4.831,4.831,0,0,1,140.1,266.255Zm-32.169-30.092a4.514,4.514,0,0,0-4.515,4.689l.7,20.7a4.515,4.515,0,0,0,4.515,4.386h31.473a4.514,4.514,0,0,0,4.515-4.4l.645-20.7a4.514,4.514,0,0,0-4.515-4.676Z" transform="translate(-43.249 -50.228)" fill="#953da2"/>
    <path id="Path_3214" data-name="Path 3214" d="M55.139,210.68l-7.759,8.99,7.9,6.714v-3.463l-4.573-3.96,4.244-4.8Z" transform="translate(18.641 -17.458)" fill="#fff"/>
    <path id="Path_3215" data-name="Path 3215" d="M80.2,211.3l7.759,9L80.056,227v-3.463l4.566-3.953L79.54,214.2Z" transform="translate(7.222 -17.678)" fill="#fff"/>
    <path id="Path_3216" data-name="Path 3216" d="M62.03,226.828l6.759-14.9h3.18l-7.655,14.9Z" transform="translate(13.44 -17.902)" fill="#fff"/>
    <path id="Path_3217" data-name="Path 3217" d="M463.427,328.095H424.054a5.869,5.869,0,0,1-5.869-5.675l-.877-25.894a5.882,5.882,0,0,1,5.875-6.075h41.037a5.882,5.882,0,0,1,5.875,6.056l-.793,25.9A5.875,5.875,0,0,1,463.427,328.095Z" transform="translate(-154.821 -69.619)" opacity="0.73" fill="url(#linear-gradient-70)"/>
    <path id="Path_3218" data-name="Path 3218" d="M463.338,328.181H423.965a6.011,6.011,0,0,1-6.03-5.8l-.877-25.894a6.036,6.036,0,0,1,6.036-6.243h41.037a6.036,6.036,0,0,1,6.036,6.217l-.793,25.875A6.017,6.017,0,0,1,463.338,328.181Zm-40.244-37.645a5.721,5.721,0,0,0-5.714,5.908l.877,25.888a5.688,5.688,0,0,0,5.708,5.521h39.373a5.688,5.688,0,0,0,5.714-5.54l.793-25.894a5.714,5.714,0,0,0-5.714-5.888Z" transform="translate(-154.732 -69.544)" fill="#953da2"/>
    <rect id="Rectangle_123" data-name="Rectangle 123" width="36.058" height="21.418" transform="translate(270.381 224.998)" fill="#d1d4fb"/>
    <path id="Path_3219" data-name="Path 3219" d="M387.25,268.19v10.79l9.216-5.888Z" transform="translate(-102.036 -37.878)" fill="#fff"/>
    <rect id="Rectangle_124" data-name="Rectangle 124" width="36.058" height="1.961" transform="translate(270.381 250.356)" fill="#d1d4fb"/>
    <rect id="Rectangle_125" data-name="Rectangle 125" width="9.332" height="1.961" transform="translate(270.381 250.356)" fill="#fff"/>
    <path id="Path_3220" data-name="Path 3220" d="M382.235,281.96l-1.877,5.379C381.4,284.366,382.893,282.438,382.235,281.96Zm-1.877,5.379-1.89,5.385C378.946,292.582,379.313,290.319,380.358,287.339Zm1.877-5.379-1.877,5.379C381.4,284.366,382.893,282.438,382.235,281.96Zm-1.877,5.379-1.89,5.385C378.946,292.582,379.313,290.319,380.358,287.339Zm5.43,4.669,1.832,1.032,1.973-5.385-2.115-.355c.039-.2.071-.4.1-.593a13.8,13.8,0,0,0,.181-2.689l2.212-1.387-1.013-4.747-2.122,2.032a6.23,6.23,0,0,0-1.1-1.58,3.874,3.874,0,0,0-.368-.361l1.29-2.992-3.45-1.122h0l-.826,3.018a5.636,5.636,0,0,0-2.335.548l-.38-2.851-3.8,2.87.877,2.528a14.388,14.388,0,0,0-1.851,2.7l-1.832-1.032-1.973,5.385,2.115.355a14.535,14.535,0,0,0-.277,3.283l-2.212,1.387,1.006,4.747,2.122-2.025a5.888,5.888,0,0,0,1.451,1.935l-1.29,3,3.392,1.322.522-1.935.361-1.29a5.8,5.8,0,0,0,2.341-.548l.374,2.851,3.8-2.876-.877-2.522a14.393,14.393,0,0,0,1.49-2.07A4.547,4.547,0,0,0,385.788,292.008Zm-5.43-4.669c-1.045,2.98,0,6.043-1.89,5.385s-2.58-3.612-1.535-6.578,3.418-4.85,5.3-4.186S381.4,284.366,380.358,287.339Zm1.877-5.379-1.877,5.379C381.4,284.366,382.893,282.438,382.235,281.96Zm-1.877,5.379-1.89,5.385C378.946,292.582,379.313,290.319,380.358,287.339Z" transform="translate(-136.277 -53.728)" fill-rule="evenodd" fill="url(#linear-gradient-71)"/>
    <path id="Path_3221" data-name="Path 3221" d="M385.511,292.057l1.974-5.385-2.019-.948-.322-.155.213-2.967,2.232-1.09-.742-4.611-4.869-1.58.9,2.135,1.7-3.457-3.45-1.122-1.412-.458-3.4-1.329-.645,2.322-2.96-1.406-3.779,2.9,1.148,3.109-3.547,9.848-1.754,6.391,3.373.368-1.1,2.535,3.405,1.329,4.863,1.58-.78-1.561-.49-.935,1.793.587,3.076,1,3.8-2.876-2.348-2.767,2.96-1.825Zm-10.686-6.894c1.045-2.973,3.418-4.85,5.3-4.186l-1.877,5.379-1.89,5.385C374.47,291.076,373.78,288.129,374.824,285.162Z" transform="translate(-134.168 -52.744)" fill-rule="evenodd" fill="url(#linear-gradient-72)"/>
    <path id="Path_3222" data-name="Path 3222" d="M380.088,290.467l1.973-5.385-2.115-.355a14.915,14.915,0,0,0,.284-3.276l2.193-1.393-1.013-4.747-2.122,2.025a5.8,5.8,0,0,0-1.451-1.935l1.29-2.993-3.4-1.329-.884,3.225a5.753,5.753,0,0,0-2.335.542L372.136,272l-3.766,2.9.871,2.528a14.437,14.437,0,0,0-1.851,2.7l-1.832-1.032-1.967,5.385,2.115.355a14.474,14.474,0,0,0-.284,3.276L363.21,289.5l1.006,4.747,2.122-2.025a5.915,5.915,0,0,0,1.451,1.935l-1.29,2.992,3.4,1.322.877-3.225a5.767,5.767,0,0,0,2.341-.548l.374,2.851,3.8-2.876-.877-2.522a14.44,14.44,0,0,0,1.851-2.7Zm-9.152-.316c-1.89-.645-2.58-3.612-1.535-6.578s3.418-4.85,5.308-4.186,2.58,3.605,1.535,6.578-3.418,4.843-5.308,4.186Z" transform="translate(-133.614 -52.741)" fill-rule="evenodd" fill="url(#linear-gradient-73)"/>
    <path id="Path_3223" data-name="Path 3223" d="M331.375,249.626l-4.863-1.587-2.212,1.387,4.869,1.587Z" transform="translate(-77.684 -20.723)" fill="#601734" fill-rule="evenodd" opacity="0.5"/>
    <path id="Path_3224" data-name="Path 3224" d="M324.12,270.875l-4.869-1.587-.871-2.528,4.863,1.587Z" transform="translate(-75.582 -27.37)" fill="#b3d9ff" fill-rule="evenodd"/>
    <path id="Path_3225" data-name="Path 3225" d="M320.63,239.172l2.67.774.9-.858,1.767.574.826-1.9-4.869-1.587Z" transform="translate(-76.381 -16.512)" fill="#601734" fill-rule="evenodd" opacity="0.5"/>
    <path id="Path_3226" data-name="Path 3226" d="M374.93,308.228l2.547,1.058-.206-1.606a4.566,4.566,0,0,1-2.341.548Z" transform="translate(-137.775 -65.736)" fill="#601734" fill-rule="evenodd" opacity="0.5"/>
    <path id="Path_3227" data-name="Path 3227" d="M375.54,285.146l4.3,2.27a6.6,6.6,0,0,1,1.1-1.167S379.816,281.515,375.54,285.146Z" transform="translate(-137.992 -57.249)" fill="#601734" fill-rule="evenodd" opacity="0.5"/>
    <path id="Path_3228" data-name="Path 3228" d="M156.116,0l4.14,8.287L157.49,9.545l-3.87-7.61Z" transform="translate(-19.081 57.348)" fill="#ff1d9c"/>
    <path id="Path_3229" data-name="Path 3229" d="M13.04,298.509l3.831,4.2,1.5-1.735L14.762,297Z" transform="translate(30.834 -48.108)" fill="#ffe277"/>
    <path id="Path_3230" data-name="Path 3230" d="M311.845,76.727l-3.857,2.335-1.548-2.928,4.218-2.464Z" transform="translate(-73.343 31.19)" fill="#4f31e0"/>
    <path id="Path_3231" data-name="Path 3231" d="M340.368,306.941l-5.527,3.928-1.541-2.934,5.366-3.134Z" transform="translate(-82.88 -50.877)" fill="#4f31e0"/>
    <path id="Path_3232" data-name="Path 3232" d="M332.425,35.382l-.935-21.7h28.422l-1.167,21.644Z" transform="translate(-82.237 52.49)" fill-rule="evenodd" fill="url(#linear-gradient-74)"/>
    <path id="Path_3233" data-name="Path 3233" d="M331.021,13.68l-.851,1.277.851,20.425h.935Z" transform="translate(-81.768 52.49)" fill-rule="evenodd" fill="url(#linear-gradient-75)"/>
    <path id="Path_3234" data-name="Path 3234" d="M343.673,20.137l-4.463-.477.613,14.872,3.85-.381V32.617l-2.231.052-.258-11.473,2.49.071Z" transform="translate(-84.978 50.367)" fill="#fff"/>
    <path id="Path_3235" data-name="Path 3235" d="M360.29,20.137l4.456-.477-.606,14.872-3.85-.381V32.617l2.231.052.251-11.473-2.483.071Z" transform="translate(-92.463 50.367)" fill="#fff"/>
    <path id="Path_3236" data-name="Path 3236" d="M18.742,112.871l.632-14.8H0l.8,14.756Z" transform="translate(35.465 22.526)" fill-rule="evenodd" fill="url(#linear-gradient-76)"/>
    <path id="Path_3237" data-name="Path 3237" d="M29.692,98.07l.58.871-.58,13.931H29.06Z" transform="translate(25.146 22.526)" fill-rule="evenodd" fill="url(#linear-gradient-77)"/>
    <path id="Path_3238" data-name="Path 3238" d="M83.653,139.638a13.351,13.351,0,0,1,2.5.09c.374.174-.1,3.637-.1,3.637l.845.774-.787.767s.039,3.508-.458,3.805a5.4,5.4,0,0,1-2.212,0v-.877a5.068,5.068,0,0,0,1.625-.1,16.214,16.214,0,0,0,.213-3.257l.374-.406-.374-.445s.064-2.186,0-2.786c0-.4-1.651-.419-1.651-.419Z" transform="translate(-36.276 -16.062)" fill="#fff"/>
    <path id="Path_3239" data-name="Path 3239" d="M74.43,139.638a13.351,13.351,0,0,0-2.5.09c-.381.174.1,3.637.1,3.637l-.851.774.793.767s-.039,3.508.458,3.805a5.37,5.37,0,0,0,2.206,0v-.877a5.03,5.03,0,0,1-1.619-.1,16.214,16.214,0,0,1-.213-3.257l-.374-.406.374-.445s-.071-2.186,0-2.786c0-.4,1.651-.419,1.651-.419Z" transform="translate(-31.923 -16.062)" fill="#fff"/>
    <path id="Path_3240" data-name="Path 3240" d="M345.247,80.488,340.5,68.06l12.312,2.58ZM341.009,68.5l4.327,11.338,6.9-8.99Z" transform="translate(-127.55 9.345)" fill="#744ca2"/>
    <rect id="Rectangle_126" data-name="Rectangle 126" width="7.056" height="0.322" transform="translate(251.469 265.819) rotate(-53.76)" fill="#744ca2"/>
    <path id="Path_3241" data-name="Path 3241" d="M272.152,239.019l-4.482-5.579.251-.2,4.482,5.572Z" transform="translate(-59.577 -25.468)" fill="#744ca2"/>
    <path id="Path_3242" data-name="Path 3242" d="M55.365,299.2l-8.945-6.488.193-.264,8.939,6.488Z" transform="translate(18.982 -46.492)" fill="#d2abff"/>
    <rect id="Rectangle_127" data-name="Rectangle 127" width="11.048" height="0.322" transform="translate(66.494 253.638) rotate(-52.7)" fill="#d2abff"/>
    <rect id="Rectangle_128" data-name="Rectangle 128" width="0.322" height="6.54" transform="translate(54.128 154.537) rotate(-62.28)" fill="#f8e397"/>
    <path id="Path_3243" data-name="Path 3243" d="M382.619,30.092l-.239-.213,6.688-7.63.245.213Z" transform="translate(-100.306 49.447)" fill="#82f6ff"/>
    <rect id="Rectangle_129" data-name="Rectangle 129" width="0.322" height="6.714" transform="matrix(0.895, -0.445, 0.445, 0.895, 152.098, 98.129)" fill="#744ca2"/>
    <rect id="Rectangle_130" data-name="Rectangle 130" width="10.022" height="0.322" transform="translate(104.779 205.57) rotate(-39.91)" fill="#f8e397"/>
  </g>
</svg>
