<svg xmlns="http://www.w3.org/2000/svg" xmlns:xlink="http://www.w3.org/1999/xlink" width="320" height="270.137" viewBox="0 0 320 270.137">
  <defs>
    <filter id="Path_2896">
      <feOffset dy="3" input="SourceAlpha"/>
      <feGaussianBlur stdDeviation="3" result="blur"/>
      <feFlood flood-opacity="0.161" result="color"/>
      <feComposite operator="out" in="SourceGraphic" in2="blur"/>
      <feComposite operator="in" in="color"/>
      <feComposite operator="in" in2="SourceGraphic"/>
    </filter>
    <filter id="Path_2900">
      <feOffset dy="3" input="SourceAlpha"/>
      <feGaussianBlur stdDeviation="3" result="blur-2"/>
      <feFlood flood-opacity="0.161" result="color-2"/>
      <feComposite operator="out" in="SourceGraphic" in2="blur-2"/>
      <feComposite operator="in" in="color-2"/>
      <feComposite operator="in" in2="SourceGraphic"/>
    </filter>
  </defs>
  <g id="OBJECTS" transform="translate(-0.001 0)">
    <path id="Path_2829" data-name="Path 2829" d="M465.963,348.4H158.246S127.441,195.812,260.3,145.508,509.183,247.4,465.963,348.4Z" transform="translate(-155.153 -94.868)" fill="#d4ede9"/>
    <path id="Path_2830" data-name="Path 2830" d="M328.033,249.5h32.62v-24.32h-32.62ZM349.5,64.773c-23.182,3.459-45.216,20.493-47.083,67.216l22.988,3.58s4.265-15.84,11.56-18.83,15.687,2.011,17.892,9.586,2.77,14.748-7.705,23.234-22.81,17.322-19.121,64.8h32.62V204.092c.4-8.091,1.911-18.77,6.88-23.677,8.536-8.366,27.413-22.088,30.781-46.013C405.554,82.919,376.34,60.751,349.5,64.773Z" transform="translate(-199.046 -43.121)" fill="#f7cf4d"/>
    <rect id="Rectangle_28" data-name="Rectangle 28" width="2.271" height="111.72" transform="translate(278.911 137.301)" fill="#0b4665"/>
    <path id="Path_2831" data-name="Path 2831" d="M581.57,222.759H554.04V204.82h27.53l4.337,8.969Z" transform="translate(-272.858 -67.519)" fill="#f8a706"/>
    <path id="Path_2832" data-name="Path 2832" d="M585.907,269.548H554.04V249.23h31.867l6.952,10.156Z" transform="translate(-272.858 -82.159)" fill="#f8a706"/>
    <path id="Path_2833" data-name="Path 2833" d="M507.788,251.868h20.539V235.25H507.788l-6.3,8.306Z" transform="translate(-249.416 -77.55)" fill="#f8a706"/>
    <path id="Path_2834" data-name="Path 2834" d="M548.694,166.071a.566.566,0,0,1-.52-.426.77.77,0,0,1,.143-.74,24.144,24.144,0,0,0,3.324-5.363,21.151,21.151,0,0,1-5.057-1.609c-4.077-1.944-6.365-5.021-6.437-8.661-.144-7.032,3.412-10.337,7-10.491,3.722-.147,7.755,2.923,8,8.942a26.949,26.949,0,0,1-1.795,10.752c11.344,1.569,28.859-2.95,42.275-19.514a.489.489,0,0,1,.787,0,.774.774,0,0,1,0,.945c-13.82,17.06-31.956,21.585-43.588,19.836a24.592,24.592,0,0,1-3.783,6.154A.508.508,0,0,1,548.694,166.071ZM547.436,140.1H547.2c-2.825.121-6.093,2.581-5.938,9.117.061,3.07,2.1,5.711,5.739,7.448a20.874,20.874,0,0,0,5.185,1.616,25.5,25.5,0,0,0,1.867-10.518C553.962,143.444,551.007,140.023,547.436,140.1Z" transform="translate(-318.882 -67.664)" fill="#0b4169"/>
    <path id="Path_2835" data-name="Path 2835" d="M112.111,193.162c-7.489,0-13.676-2.514-16.363-7.293-2.083-3.694-2.98-10.3,4.542-20.781a.492.492,0,0,1,.784-.07.774.774,0,0,1,.058.949c-5.595,7.8-7.14,14.433-4.47,19.172,4.165,7.374,18.246,8.855,31.391,3.244a71.28,71.28,0,0,0,9.716-5.095,14.161,14.161,0,0,1-2.415-4.82c-1.025-3.747-.482-8.044,1.617-12.737,2.16-4.847,8.608-9.506,13.294-9.593a4.952,4.952,0,0,1,4.9,2.916,9.407,9.407,0,0,1,.094,6.791c-1.551,5.088-6.414,11.818-15.56,17.845a21.791,21.791,0,0,0,5.174,3.908c11.173,6.274,26.721-4.364,26.882-4.471a.507.507,0,0,1,.736.259.757.757,0,0,1-.182.9,43.83,43.83,0,0,1-9.494,4.7c-5.019,1.8-12.291,3.224-18.423-.221a22.409,22.409,0,0,1-5.744-4.451,72.541,72.541,0,0,1-10.214,5.309,42.236,42.236,0,0,1-16.318,3.539Zm38.281-35.736h-.127c-4.254.074-10.353,4.485-12.319,8.889s-2.465,8.326-1.54,11.7a12.654,12.654,0,0,0,2.382,4.6c7.013-4.578,13.383-10.618,15.416-17.288a8.017,8.017,0,0,0,0-5.651A3.913,3.913,0,0,0,150.392,157.426Z" transform="translate(-94.28 -73.391)" fill="#e2f3ff"/>
    <path id="Path_2836" data-name="Path 2836" d="M578.223,372.262s4.265,2.5,7.572-4.994c2.061-3.834,2.614-2.165,2.886-10.665a13.608,13.608,0,0,1,3.578-9.157c1.363-1.662,2.066-6.5,1.518-8.668s-1.617-4.284,2.216-8.909a24.355,24.355,0,0,0,5.888-14.748c.31-5.363-1.756-7.374-6.714-2.373s-8.359,12.871-8.863,13.615-4.127,4.873-4.021,9.995-.726,7.622-1.446,8.748-3.761,1.414-1.052,16.008C579.253,364.258,575.536,367.932,578.223,372.262Z" transform="translate(-331.151 -124.072)" fill="#478a15"/>
    <path id="Path_2837" data-name="Path 2837" d="M559.456,375.175s2.581-7.039,1.756-10.411-4.232-5.121-4.232-5.121-.21-9.244-1.662-12.737-5.572-8.118-5.982-9.62.1-6.12-3.512-9.747a60.376,60.376,0,0,1-7.123-8.118c-.62-1.126-4.647-2.621-3.2,10.5.62,2.011,4.132,8.869,5.268,11.738a19.083,19.083,0,0,1,.825,9.385,9.412,9.412,0,0,0,3.816,8.715c2.886,2.219,3.512,2.118,3.927,5.618S553.884,376.214,559.456,375.175Z" transform="translate(-310.613 -126.984)" fill="#478a15"/>
    <path id="Path_2838" data-name="Path 2838" d="M564.761,383.329,550.42,343.55l14.845,39.51a.4.4,0,0,1-.017.346.261.261,0,0,1-.261.143.293.293,0,0,1-.226-.214Z" transform="translate(-317.391 -135.172)" fill="#fff"/>
    <path id="Path_2839" data-name="Path 2839" d="M581.955,377.012c1.108-4.1,2.216-8.218,3.263-12.341q.831-3.087,1.507-6.207c.454-2.078.931-4.176,1.44-6.248,1.019-4.143,2.166-8.245,3.506-12.254.692-2.011,1.39-3.982,2.216-5.892a31.46,31.46,0,0,1,2.914-5.43,32.045,32.045,0,0,0-2.847,5.47c-.825,1.917-1.5,3.915-2.171,5.913-1.291,4.022-2.393,8.138-3.368,12.287q-.731,3.117-1.368,6.261c-.421,2.1-.942,4.176-1.446,6.248q-1.523,6.214-3.135,12.395a.285.285,0,0,1-.357.238.364.364,0,0,1-.2-.432Z" transform="translate(-332.79 -130.257)" fill="#fff"/>
    <path id="Path_2840" data-name="Path 2840" d="M579.518,354.257a.3.3,0,0,1-.271-.295c0-.107-1.147-10.913-1.623-24.079-.438-12.167-.393-28.905,2.321-39.551a.323.323,0,0,1,.135-.2.23.23,0,0,1,.214-.02.352.352,0,0,1,.183.416c-5.162,20.184-.726,62.9-.681,63.328a.381.381,0,0,1-.053.249.265.265,0,0,1-.185.126Z" transform="translate(-329.88 -117.55)" fill="#6eff00"/>
    <path id="Path_2841" data-name="Path 2841" d="M582.46,285.952s1.457-6.5,3.107-8.58,3.783-.583,3.163,3.58S582.46,285.952,582.46,285.952Z" transform="translate(-332.537 -113.049)" fill="#6eff00"/>
    <path id="Path_2842" data-name="Path 2842" d="M579.381,300.657s3.39-6.348,4.753-6.429,2.465,1.5,1.019,4.25-6.093,5.5-6.093,5.5Z" transform="translate(-330.901 -118.912)" fill="#6eff00"/>
    <path id="Path_2843" data-name="Path 2843" d="M575.651,306.039s-2.958-2.427-3.578-4.632-.41-5.457.687-5.457,2.581,3.164,3.013,7.206Z" transform="translate(-327.162 -119.481)" fill="#6eff00"/>
    <path id="Path_2844" data-name="Path 2844" d="M579.431,290.9a9.613,9.613,0,0,1-2.171-5.289c-.033-2.789.936-4.914,2.171-3.352s.216,7.582.216,7.582Z" transform="translate(-329.786 -114.793)" fill="#6eff00"/>
    <path id="Path_2845" data-name="Path 2845" d="M578.07,319.413s2.371-5.209,3.268-6.583,3.163-1.83,2.548,2.581-5.063,7.119-5.816,7.079Z" transform="translate(-330.367 -124.73)" fill="#6eff00"/>
    <path id="Path_2846" data-name="Path 2846" d="M574.688,320.142s-.825-2.956-1.662-3.707-3.168-.375-2.376,3.5,3.4,4.418,3.938,3.955.089,0,.089,0Z" transform="translate(-326.576 -126.129)" fill="#6eff00"/>
    <path id="Path_2847" data-name="Path 2847" d="M578.07,338.062s1.584-7.052,2.958-9.09,3.03-2.293,2.963,1.294-5.024,8.044-5.9,8.614Z" transform="translate(-330.367 -129.878)" fill="#6eff00"/>
    <path id="Path_2848" data-name="Path 2848" d="M578.51,351.091s2.4-4.793,3.645-5.463,2.615,3.962,0,6.375-3.506,2.045-3.506,2.045Z" transform="translate(-330.535 -135.835)" fill="#6eff00"/>
    <path id="Path_2849" data-name="Path 2849" d="M573.792,354.4a6.943,6.943,0,0,1-4.924-3.164c-1.651-2.836-.875-5.329.493-5.2S572.762,350.241,573.792,354.4Z" transform="translate(-325.417 -135.991)" fill="#6eff00"/>
    <path id="Path_2850" data-name="Path 2850" d="M573.451,338.293s-1.662.295-4.1-2.829-1.49-6.127.709-4.753,3.479,7.119,3.479,7.119Z" transform="translate(-325.393 -130.827)" fill="#6eff00"/>
    <g id="Group_2754" data-name="Group 2754" transform="translate(256.083 110.183)" opacity="0.5">
      <path id="Path_2851" data-name="Path 2851" d="M603.746,200.984s2.825,1,3.235-.751-.133-2.326-.615-2.829-3.1-.583-3.323.751A4.861,4.861,0,0,0,603.746,200.984Z" transform="translate(-603.008 -197.067)" fill="#188991"/>
    </g>
    <g id="Group_2755" data-name="Group 2755" transform="translate(242.66 103.479)" opacity="0.5">
      <path id="Path_2852" data-name="Path 2852" d="M579.06,201.434s4.431-3.084,4.431-7.662-7.434-6.576-9.417-6.7-5.578,4.022-4.753,11.872C569.672,201.314,575.039,204.933,579.06,201.434Z" transform="translate(-569.201 -187.066)" fill="#188991"/>
    </g>
    <g id="Group_2756" data-name="Group 2756" transform="translate(234.133 174.284)" opacity="0.98">
      <path id="Path_2853" data-name="Path 2853" d="M552.145,297.134a2,2,0,0,0,1.987-.241,2.916,2.916,0,0,0,1.115-2c.687-3.251-1.928-2.011-2.409-1.75S550.222,295.639,552.145,297.134Z" transform="translate(-551.355 -292.689)" fill="#f8e397"/>
    </g>
    <g id="Group_2757" data-name="Group 2757" transform="translate(223.187 162.741)" opacity="0.98">
      <path id="Path_2854" data-name="Path 2854" d="M536.541,287.63s4.476.328,5.024-5.168-3.1-6.992-5.572-6.992-6.542,2.065-4.891,8.775C531.428,286.048,533.029,287.965,536.541,287.63Z" transform="translate(-530.718 -275.47)" fill="#f8e397"/>
    </g>
    <path id="Path_2855" data-name="Path 2855" d="M176.688,355.532s7.938,1.247,9.417-10.25.161-9.868,1.606-13.742,2.991-7.374,2.991-14.486,1.346-10.109,2.687-11.926,3.2-6.315,2.687-12.187a56.486,56.486,0,0,1,1.545-16.759c1.03-4.391,1.446-9.874.515-13.367s-5.163-1.629-8.048,3.747-7.755,18.488-9.5,21.612-2.681,10.88-2.066,16.933.737,11.8-1.23,14.171-3,11.617-1.557,18.24S173.874,354.124,176.688,355.532Z" transform="translate(-130.313 -107.972)" fill="#2d690b"/>
    <path id="Path_2856" data-name="Path 2856" d="M152.625,351.659s.2-8.5-1.723-11.329-.277-10.826-7.705-22.49,1.374-23.818-5.235-33.812-6.6-14.526-6.6-20.184-.692-13.206-2.77-14.433-4.271,7.1-3.877,12.6-7.157,17.489-4.265,28.322,3.324,17.489,3.324,20.821.138,7.327,2.066,9.325,8.392,9.325,4.542,12.991S134.113,351.29,152.625,351.659Z" transform="translate(-105.657 -104.099)" fill="#2d690b"/>
    <path id="Path_2857" data-name="Path 2857" d="M157.2,368.738c-2.609-5.182-4.985-10.5-7.267-15.894s-4.359-10.893-6.3-16.471-3.606-11.275-5.113-17.054a159.212,159.212,0,0,1-3.429-17.65,162.3,162.3,0,0,0,3.556,17.6c1.551,5.745,3.29,11.4,5.262,16.966s4.121,11.007,6.414,16.37,4.736,10.645,7.367,15.76h0a.387.387,0,0,1,.037.254.331.331,0,0,1-.126.208.237.237,0,0,1-.21.042.286.286,0,0,1-.173-.15Z" transform="translate(-112.484 -121.366)" fill="#fff"/>
    <path id="Path_2858" data-name="Path 2858" d="M177.476,369.294a149.585,149.585,0,0,0,4.2-15.867c1.169-5.363,1.734-10.92,2.615-16.4s1.75-10.947,2.675-16.4,1.861-10.92,2.941-16.336c-1.036,5.43-1.905,10.907-2.8,16.37s-1.739,10.947-2.542,16.43-1.357,11.027-2.482,16.457a149.7,149.7,0,0,1-4.1,16,.26.26,0,0,1-.35.169.357.357,0,0,1-.165-.41h0Z" transform="translate(-131.384 -122.23)" fill="#fff"/>
    <g id="Group_2758" data-name="Group 2758" transform="translate(66.223 221.908)" opacity="0.5">
      <path id="Path_2859" data-name="Path 2859" d="M228.041,369.738s1.34-3.875.515-5.363S223.4,364,223.6,367.626,226.391,369.738,228.041,369.738Z" transform="translate(-223.597 -363.734)" fill="#188991"/>
    </g>
    <g id="Group_2759" data-name="Group 2759" transform="translate(69.538 205.426)" opacity="0.5">
      <path id="Path_2860" data-name="Path 2860" d="M237.93,352.884s4.232-2.125,2.891-9.385-8.774-3.747-9.81-1.495S228.536,353.8,237.93,352.884Z" transform="translate(-230.257 -339.146)" fill="#188991"/>
    </g>
    <g id="Group_2760" data-name="Group 2760" transform="translate(46.344 129.785)" opacity="0.5">
      <path id="Path_2861" data-name="Path 2861" d="M180.219,229.862s2.166.248,1.545-2.125-3.922-1.374-3.816,0A2.563,2.563,0,0,0,180.219,229.862Z" transform="translate(-177.946 -226.308)" fill="#188991"/>
    </g>
    <g id="Group_2761" data-name="Group 2761" transform="translate(47.464 137.485)" opacity="0.5">
      <path id="Path_2862" data-name="Path 2862" d="M179.985,242.27s-.515,4.873,3.922,7,7.018.121,7.123-3-.055-5.5-1.989-6.744S179.675,235.251,179.985,242.27Z" transform="translate(-179.967 -237.795)" fill="#188991"/>
    </g>
    <path id="Path_2863" data-name="Path 2863" d="M235.09,135.09c0-5.225-3.5-9.46-7.817-9.46h-27.1c-4.317,0-7.817,4.235-7.817,9.46v11.18c0,5.225,3.5,9.46,7.817,9.46h26.577l7.632,4.489-.625-7.594a2.886,2.886,0,0,0-.377-.482,10.682,10.682,0,0,0,1.705-5.874Z" transform="translate(-174.583 -75.107)" fill="#f7a806"/>
    <path id="Path_2864" data-name="Path 2864" d="M226.6,138.661a2.321,2.321,0,0,1-.506,1.475,1.582,1.582,0,0,1-1.221.607H204.087a1.582,1.582,0,0,1-1.221-.607,2.321,2.321,0,0,1-.506-1.475h0a2.321,2.321,0,0,1,.506-1.475,1.582,1.582,0,0,1,1.221-.607h20.757a1.582,1.582,0,0,1,1.221.607,2.321,2.321,0,0,1,.506,1.475Z" transform="translate(-177.783 -76.64)" fill="#fff"/>
    <path id="Path_2865" data-name="Path 2865" d="M219.578,149.486a1.783,1.783,0,0,1-1.592,1.926H203.952a1.783,1.783,0,0,1-1.592-1.926h0a1.783,1.783,0,0,1,1.592-1.926h14.035A1.783,1.783,0,0,1,219.578,149.486Z" transform="translate(-177.683 -78.178)" fill="#fff"/>
    <path id="Path_2866" data-name="Path 2866" d="M463.638,32.7h-22.81c-2.732.018-4.942,2.694-4.958,6V45.53c.018,3.3,2.228,5.975,4.958,5.993h9.417a15.657,15.657,0,0,0,2.731,4.458c.643.9.427-.979.427-1.937a2.741,2.741,0,0,1,1.529-2.521h8.708c2.73-.018,4.939-2.69,4.958-5.993V38.7c-.015-3.306-2.226-5.981-4.958-6Z" transform="translate(-262.2 -32.7)" fill="#4af6ff"/>
    <path id="Path_2867" data-name="Path 2867" d="M468.367,40.785c0,.831-.415,1.5-.931,1.5H442.765c-.51,0-.925-.67-.925-1.5h0c0-.825.415-1.495.925-1.495h24.672C467.952,39.29,468.367,39.96,468.367,40.785Z" transform="translate(-264.828 -34.872)" fill="#fff"/>
    <path id="Path_2868" data-name="Path 2868" d="M465.3,51.111c0,.811-.3,1.475-.687,1.475h-22.09c-.382,0-.687-.67-.687-1.475h0c0-.818.3-1.481.687-1.481h22.112c.382,0,.687.67.687,1.481Z" transform="translate(-264.681 -38.281)" fill="#fff"/>
    <g id="Group_2762" data-name="Group 2762" transform="translate(29.664 -6.765)">
      <path id="Path_2869" data-name="Path 2869" d="M506,99.625l3.422-5.635s-3.722-14.683,9.148-18.844,20.565,7.252,16.92,17.961-19.015,13-25.229,5.328Z" transform="translate(-299.902 -46.671)" fill="#f7a806"/>
      <g id="Group_2763" data-name="Group 2763" transform="translate(-1 0.75)">
        <rect id="Rectangle_29" data-name="Rectangle 29" width="3.198" height="2.165" transform="translate(221.887 46.557)" fill="#fff"/>
        <path id="Path_2870" data-name="Path 2870" d="M524.369,93.462V89.229s1.6-.185,1.752-1.29-.876-1.386-1.562-.371l-1.9-1.483s1.4-4.975,5.213-3.826,2.622,5.716,2.016,6.673a7.6,7.6,0,0,1-2.683,1.846l-.049,2.684Z" transform="translate(-302.39 -48.425)" fill="#fff"/>
      </g>
    </g>
    <path id="Path_2871" data-name="Path 2871" d="M270.1,428.591s23.226-.255,25.7-.751c0,0,12.081-1.877,13.732-3.627s-5.473-5.363-10.115-7.119-27.873-3.747-41.189-2.561-28.388,6.824-16.108,11.751c6.714,2.427,18.944,1.683,18.944,1.683Z" transform="translate(-165.664 -158.454)" fill="#b3dac9"/>
    <path id="Path_2872" data-name="Path 2872" d="M321.232,418.912l2.321,2.159s2.581.382,2.836,2.011-1.446,3-7.173,3.063c-1.911.127-4.387-1.247-6.193-1.5s-3.877-.932-3.612-8.681C310.7,409.776,319.421,418.5,321.232,418.912Z" transform="translate(-199.556 -158.314)" fill="#0b4665"/>
    <path id="Path_2873" data-name="Path 2873" d="M259.528,416.011s.98,7.193-2.5,8.507c-3.179,1.622-4.431,2.125-5.19,2.681s-6.193.389-7.639-.744-.554-3.814,1.756-4.317l3.634-3.707S258.947,412.043,259.528,416.011Z" transform="translate(-167.29 -158.631)" fill="#0b4665"/>
    <path id="Path_2874" data-name="Path 2874" d="M269.584,332.023s-4.736,45.074-4.814,47.186-.825,7.246-1.662,8.433a12.967,12.967,0,0,1-6.569,4.753c-3.562,1.133-4.431-.429-4.282-1.676,0,0,4.487-4.31,5.212-7.87s1.185-49.465,1.185-54S269.035,327.98,269.584,332.023Z" transform="translate(-171.594 -129.638)" fill="#ffbebe"/>
    <path id="Path_2875" data-name="Path 2875" d="M303.19,330.553l6.193,56.309,3.994,4.411s-1.291,4.163-7.489.918a11.578,11.578,0,0,1-4.332-3.875S293.347,336.7,291.9,333.6,302.293,328.89,303.19,330.553Z" transform="translate(-191.059 -130.668)" fill="#ffbebe"/>
    <path id="Path_2876" data-name="Path 2876" d="M283.776,255.239a41.408,41.408,0,0,0,.737,10.491c1.135,5.249,6.6,36.38,6.6,36.38s-2.371,9.09-19.221,6.7c-14.662-2.065-17.515-6.241-17.515-6.241s.892-12.227,1.878-20.171,3.146-18.307,3.251-25.681S282.624,245.619,283.776,255.239Z" transform="translate(-173.077 -104.156)" fill="#00af8c"/>
    <path id="Path_2877" data-name="Path 2877" d="M282.643,188.218s-1.136-12.737-1.241-19.554-7.378-16.926-16.413-8.869c0,0-1.773-1.227-1.252,1.937,0,0-2.963.751-4.542,10.163s-3.789,20.151-4.476,22.651S280.56,197.958,282.643,188.218Z" transform="translate(-173.033 -73.615)"/>
    <path id="Path_2878" data-name="Path 2878" d="M285.17,195.545V204.5l-6.83.871.094-11.61S285.17,191.054,285.17,195.545Z" transform="translate(-184.121 -85.527)" fill="#ffbebe"/>
    <path id="Path_2879" data-name="Path 2879" d="M284.189,176.054c-4.806,0-9.326-2.76-12.186-7.434,0,0-2.166,1-1.662,5.933a2.053,2.053,0,0,1-1.961-.4c-1.108-.791-2.443.5-1.856,2.681a1.935,1.935,0,0,0,2.271,1.709s.98,10.223,7.893,10.6S284.134,179.553,284.189,176.054Z" transform="translate(-178.526 -77.506)" fill="#ffbebe"/>
    <path id="Path_2880" data-name="Path 2880" d="M326.838,229.917s4.747-5.752,9.971-11.4c1.756-2.252,2.891-5.363,7.2-5.316s6.243,0,7.639-.436,2.736-.563,2.736.436-5.678,3.191-8.674,3.814a4.126,4.126,0,0,0-.931,0s-9.372,15.271-12.519,19.259-5.888,3.814-8.1,0S326.838,229.917,326.838,229.917Z" transform="translate(-206.937 -91.952)" fill="#ffbebe"/>
    <path id="Path_2881" data-name="Path 2881" d="M219.661,230.549s-11.632-14.077-12.269-14.935-4.282-1.059-5.622-1.059-4.985.188-5.728,0-2.581,1.877,1.75,3.312,6.5,1.683,8.464,5.5,9.86,18.053,12.856,19.172,4.852.67,6.553-2.681S219.661,230.549,219.661,230.549Z" transform="translate(-143.773 -92.644)" fill="#ffbebe"/>
    <path id="Path_2882" data-name="Path 2882" d="M327.6,231.9l-2.061-1.582-.072-.114c-.554,1.89-2.637,9.164-3.49,12.938l1.5,1.582S327.259,236.562,327.6,231.9Z" transform="translate(-205.388 -97.806)" fill="#1a8b91"/>
    <path id="Path_2883" data-name="Path 2883" d="M289.7,220.958c-.781-1.341-8.913-15.539-11.322-17.858-1.905-2.058-9.029,1.817-9.55,1.877a2.838,2.838,0,0,1-2.941,1.877,5.311,5.311,0,0,1-3.817-1.937v-.67a39.965,39.965,0,0,0-6.647-2.058c-2.282-.308-4.193,2.373-5.844,4.934-1.352,2.091-4.9,10.592-7.788,14.8.753,2.547,3.113,9.606,7,12.737a18.57,18.57,0,0,0,1.978-4.022s.31,6.429.31,8.044-.98,4.692,6.4,5.309,18.163,2.306,21.83-4.4c.98-3.754.26-12.737.26-12.737l6.647,7.059C287.062,230.121,289.15,222.835,289.7,220.958Z" transform="translate(-167.135 -88.564)" fill="#981d1d"/>
    <path id="Path_2884" data-name="Path 2884" d="M240.331,231.61a8.547,8.547,0,0,1-1.811,2.065s1.6,10.3,7.378,13.554l.155-1.066q.675-.858,1.274-1.8C243.444,241.216,241.085,234.157,240.331,231.61Z" transform="translate(-164.72 -98.271)" fill="#1a8b91"/>
    <path id="Path_2885" data-name="Path 2885" d="M307.513,229.219a.232.232,0,0,1-.166-.067l-2.664-2.433v-.141c-1.108-12.133,1.712-17.811,1.828-18.046a.286.286,0,0,1,.173-.15.237.237,0,0,1,.21.042.331.331,0,0,1,.126.208.387.387,0,0,1-.037.254c-.028.054-2.8,5.691-1.761,17.476l2.47,2.252a.4.4,0,0,1,.055.476A.26.26,0,0,1,307.513,229.219Z" transform="translate(-196.764 -90.611)" fill="#afc1d1"/>
    <path id="Path_2886" data-name="Path 2886" d="M282.606,213.035c-1.4,0-3.877-.328-5.118-2.453a.382.382,0,0,1-.05-.247.343.343,0,0,1,.111-.216.252.252,0,0,1,.388.074c1.584,2.681,5.583,2.118,5.622,2.112a.3.3,0,0,1,.313.292.332.332,0,0,1-.241.379A6.362,6.362,0,0,1,282.606,213.035Z" transform="translate(-183.67 -91.166)" fill="#afc1d1"/>
    <path id="Path_2887" data-name="Path 2887" d="M263.7,221.975h-.044a.277.277,0,0,1-.18-.137.392.392,0,0,1-.047-.252,24.015,24.015,0,0,0-2.077-13.253.382.382,0,0,1,.08-.466.251.251,0,0,1,.385.1,24.375,24.375,0,0,1,2.16,13.729A.3.3,0,0,1,263.7,221.975Z" transform="translate(-175.726 -90.426)" fill="#afc1d1"/>
    <path id="Path_2888" data-name="Path 2888" d="M257.58,243.923a.254.254,0,0,1-.133-.04.375.375,0,0,1-.105-.456l1.545-3.352a.259.259,0,0,1,.377-.134.33.33,0,0,1,.134.2.4.4,0,0,1-.023.256l-1.551,3.352A.274.274,0,0,1,257.58,243.923Z" transform="translate(-173.76 -101.004)" fill="#afc1d1"/>
    <path id="Path_2889" data-name="Path 2889" d="M218.83,164.416l4.2,2.272,1.59-2.748-5.561-.63Z" transform="translate(-106.784 -53.835)" fill="#074066"/>
    <path id="Path_2890" data-name="Path 2890" d="M312.065,191.424c.2,0,4.077-3.432,4.077-3.432l-1.634-2.681-3.218,5.155Z" transform="translate(-200.151 -83.008)" fill="#074066"/>
    <path id="Path_2891" data-name="Path 2891" d="M153.655,165.03h.942l-2.166-6.75-2.321,2.313Z" transform="translate(-73.226 -52.177)" fill="#074066"/>
    <path id="Path_2892" data-name="Path 2892" d="M244.437,204.414l-4.7,2.185s-1.5-1.066-.77-3.5h5.467Z" transform="translate(-164.786 -88.873)" fill="#074066"/>
    <path id="Path_2893" data-name="Path 2893" d="M484.867,414.979s4.232.583,4.232,2.353-6.5,4.27-27.458,4.518-48.833,1.877-46.319-3.432S434.9,410.87,434.9,410.87s11.954,1.609,17.227,1.864S482.38,413.136,484.867,414.979Z" transform="translate(-254.235 -157.364)" fill="#b3dac9"/>
    <path id="Path_2894" data-name="Path 2894" d="M515.656,400.891a7.053,7.053,0,0,0,5.367,4.384c4.26.858,5.805,2.943,5.251,5.859-.554,1.421-4.985,2.011-9.417,2.085s-11.965,1.341-12.579-3c-.138-1.086.753-9.747.753-9.747S514.005,396.9,515.656,400.891Z" transform="translate(-295.21 -153.451)" fill="#0b4665"/>
    <path id="Path_2895" data-name="Path 2895" d="M438.935,404.409s0,5.745-.615,7.749-1.662,3.352-7.506,3.164-12.042.583-14.036-.838-2.41-4.994,3.324-6.409,7.09-1.414,9.361-7.83S438.664,401.748,438.935,404.409Z" transform="translate(-251.737 -153.055)" fill="#0b4665"/>
    <g data-type="innerShadowGroup">
      <path id="Path_2896-2" data-name="Path 2896" d="M476.491,230.994s3.1,41.334,4.747,58.16c.482,6.744,5.163,47.97,4.542,51.845a11.964,11.964,0,0,1-15.51.121S461.109,256.8,460.8,255.67s-1.446-5.121-1.961-.248-6.37,81.883-8.021,87.2c0,0-.238,2.494-5.057,2.286s-10.358-1.87-10.94-1.662c0,0,3.08-46.254,4.431-85.074S439.672,200.654,476.491,230.994Z" transform="translate(-262.646 -93.097)" fill="#0b4665"/>
      <g transform="matrix(1, 0, 0, 1, 0, 0)" filter="url(#Path_2896)">
        <path id="Path_2896-3" data-name="Path 2896" d="M476.491,230.994s3.1,41.334,4.747,58.16c.482,6.744,5.163,47.97,4.542,51.845a11.964,11.964,0,0,1-15.51.121S461.109,256.8,460.8,255.67s-1.446-5.121-1.961-.248-6.37,81.883-8.021,87.2c0,0-.238,2.494-5.057,2.286s-10.358-1.87-10.94-1.662c0,0,3.08-46.254,4.431-85.074S439.672,200.654,476.491,230.994Z" transform="translate(-262.65 -93.1)" fill="#fff"/>
      </g>
    </g>
    <path id="Path_2897" data-name="Path 2897" d="M540.619,233.944s1.518.831,2.825,3.747,1.7,4.17,2.271,4.351c0,0,.122,2.5-2.548,1.441,0,0-.393,2.125-3.285,3.352s-7.2,2.936-6.193-11.054C533.689,235.781,539.794,233.274,540.619,233.944Z" transform="translate(-308.982 -99.003)" fill="#f48f8f"/>
    <path id="Path_2898" data-name="Path 2898" d="M437.257,114.049s3.767-5.685,6.093-7.555-1.39-2.44-2.371-1.341c0,0,.1-2.185-2.891-3.814s-5.888-.932-6.918,9.311C429.768,119.546,433.54,116.308,437.257,114.049Z" transform="translate(-258.844 -55.105)" fill="#f48f8f"/>
    <path id="Path_2899" data-name="Path 2899" d="M480.522,228.572s.825,4.746,0,6.583-19.016,6.295-37.733.959c-1.512-.744,0-6.409,0-8.828S479.558,226.488,480.522,228.572Z" transform="translate(-265.583 -96.447)" fill="#1a8b91"/>
    <g data-type="innerShadowGroup">
      <path id="Path_2900-2" data-name="Path 2900" d="M443.346,128.545a66.48,66.48,0,0,1,10.718-.5c4.2.335,10.768.871,13.349,8.621s16.208,55.465,16.208,55.465-1.551,7.126-8.979,4.25l-10.325-29.609s2.77,19.822-1.662,25.822c0,0-7.018,7.83-35.1,2.165,0,0-4.958-3.834-4.431-8.829s2.072-35.528,2.072-35.528-9.915,6.033-14.042,7.206-10.74-2.172-6.331-14.661S417.107,113,417.107,113s6.952.67,8.464,6.167l-9.012,21.485s8.12-10.2,14.518-11.329C432.96,128.968,443.346,128.545,443.346,128.545Z" transform="translate(-248.741 -59.171)" fill="#200061"/>
      <g transform="matrix(1, 0, 0, 1, 0, 0)" filter="url(#Path_2900)">
        <path id="Path_2900-3" data-name="Path 2900" d="M443.346,128.545a66.48,66.48,0,0,1,10.718-.5c4.2.335,10.768.871,13.349,8.621s16.208,55.465,16.208,55.465-1.551,7.126-8.979,4.25l-10.325-29.609s2.77,19.822-1.662,25.822c0,0-7.018,7.83-35.1,2.165,0,0-4.958-3.834-4.431-8.829s2.072-35.528,2.072-35.528-9.915,6.033-14.042,7.206-10.74-2.172-6.331-14.661S417.107,113,417.107,113s6.952.67,8.464,6.167l-9.012,21.485s8.12-10.2,14.518-11.329C432.96,128.968,443.346,128.545,443.346,128.545Z" transform="translate(-248.74 -59.17)" fill="#fff"/>
      </g>
    </g>
    <path id="Path_2901" data-name="Path 2901" d="M510.764,183.154a.456.456,0,0,1-.41-.429l-2.548-20.238a.5.5,0,0,1,.349-.57.44.44,0,0,1,.476.422l2.542,20.238a.5.5,0,0,1-.349.57Z" transform="translate(-295.948 -75.295)" fill="#106578"/>
    <path id="Path_2902" data-name="Path 2902" d="M470.2,145.7a7.076,7.076,0,0,1-3.379-.8,7.925,7.925,0,0,1-3.6-4.941.609.609,0,0,1,0-.4.467.467,0,0,1,.239-.273.354.354,0,0,1,.33.008.485.485,0,0,1,.224.294,6.954,6.954,0,0,0,3.157,4.357c3.1,1.689,7-.141,7.04-.154a.345.345,0,0,1,.328-.005.468.468,0,0,1,.226.287.584.584,0,0,1,.007.4.448.448,0,0,1-.24.273A10.8,10.8,0,0,1,470.2,145.7Z" transform="translate(-274.571 -67.823)" fill="#106578"/>
    <path id="Path_2903" data-name="Path 2903" d="M423.506,160.5a.423.423,0,0,1-.382-.308c-1.069-3.131,1.905-7.173,2.038-7.34a.382.382,0,0,1,.285-.166.367.367,0,0,1,.3.133.588.588,0,0,1,.033.711c-.028.034-2.77,3.734-1.889,6.274a.592.592,0,0,1,.009.393.461.461,0,0,1-.23.277.349.349,0,0,1-.161.027Z" transform="translate(-254.523 -72.252)" fill="#106578"/>
    <path id="Path_2904" data-name="Path 2904" d="M501.325,240.327a.465.465,0,0,1-.415-.5v-4.592a.423.423,0,1,1,.831,0v4.592a.472.472,0,0,1-.415.5Z" transform="translate(-292.462 -99.299)" fill="#106578"/>
    <path id="Path_2905" data-name="Path 2905" d="M487.43,242.144a.466.466,0,0,1-.415-.476l-.2-4.371a.479.479,0,0,1,.391-.533.454.454,0,0,1,.44.473l.2,4.371a.564.564,0,0,1-.1.365.385.385,0,0,1-.289.164Z" transform="translate(-285.599 -99.97)" fill="#106578"/>
    <path id="Path_2906" data-name="Path 2906" d="M474.025,242.149a.465.465,0,0,1-.415-.5v-4.364a.423.423,0,1,1,.831,0v4.337a.574.574,0,0,1-.115.371A.391.391,0,0,1,474.025,242.149Z" transform="translate(-279.156 -99.975)" fill="#106578"/>
    <path id="Path_2907" data-name="Path 2907" d="M461.255,241.564a.472.472,0,0,1-.415-.5v-4.538a.423.423,0,1,1,.831,0v4.538a.465.465,0,0,1-.415.5Z" transform="translate(-272.932 -99.725)" fill="#106578"/>
    <path id="Path_2908" data-name="Path 2908" d="M448.4,239.921a.472.472,0,0,1-.415-.5v-4.1a.423.423,0,1,1,.831,0v4.1a.465.465,0,0,1-.415.5Z" transform="translate(-266.665 -99.329)" fill="#106578"/>
    <path id="Path_2909" data-name="Path 2909" d="M464.615,235.934h-.992c-14.28-.228-20.5-1.4-21.492-4.062a.549.549,0,0,1,.21-.664.39.39,0,0,1,.549.255c1.169,3.157,15.9,3.392,20.744,3.466,12.663.208,15.765-3.566,15.8-3.606a.363.363,0,0,1,.547.013.581.581,0,0,1,.062.658C479.919,232.154,476.939,235.934,464.615,235.934Z" transform="translate(-265.532 -98.124)" fill="#106578"/>
    <path id="Path_2910" data-name="Path 2910" d="M548.256,245.76a.257.257,0,0,1-.138-.04c-1.462-1-2.437-4.491-2.476-4.646a1.081,1.081,0,0,0-1.108-.932.35.35,0,0,0-.344.241c-.222.483-.216,1.944,1.208,4.371a.39.39,0,0,1-.066.469.257.257,0,0,1-.388-.08c-1.473-2.521-1.606-4.277-1.235-5.088a.873.873,0,0,1,.859-.576,1.67,1.67,0,0,1,1.617,1.455h0s.942,3.352,2.216,4.21a.368.368,0,0,1,.127.372.294.294,0,0,1-.26.251Z" transform="translate(-313.462 -100.864)" fill="#ce6161"/>
    <path id="Path_2911" data-name="Path 2911" d="M534.936,250.062a.269.269,0,0,1-.255-.2c-.133-.389-1.268-3.821-.51-5.2a1.058,1.058,0,0,1,.958-.576c.692,0,.964.985,1.147,1.642.028.094.055.188.078.275a.36.36,0,0,1-.161.429.276.276,0,0,1-.36-.2,1.064,1.064,0,0,0-.083-.288c-.127-.476-.327-1.187-.62-1.187a.524.524,0,0,0-.5.282c-.449.811.105,3.224.554,4.558a.379.379,0,0,1-.15.442A.3.3,0,0,1,534.936,250.062Z" transform="translate(-308.632 -102.384)" fill="#ce6161"/>
    <path id="Path_2912" data-name="Path 2912" d="M538.163,248.074a.276.276,0,0,1-.249-.2c-.427-1.14-1.739-4.934-.659-5.732a.9.9,0,0,1,.925-.154c.438.2.781.778,1.047,1.763a.354.354,0,0,1-.177.422.229.229,0,0,1-.212-.017.321.321,0,0,1-.137-.2c-.271-1.012-.554-1.274-.715-1.341a.43.43,0,0,0-.443.094c-.443.328.094,2.8.875,4.887a.367.367,0,0,1-.138.442A.257.257,0,0,1,538.163,248.074Z" transform="translate(-310.056 -101.67)" fill="#ce6161"/>
    <path id="Path_2913" data-name="Path 2913" d="M541.273,246.31a.27.27,0,0,1-.238-.174c-.177-.375-1.717-3.734-1.246-5.443a1.281,1.281,0,0,1,.643-.858,1.1,1.1,0,0,1,1.108.134,3.349,3.349,0,0,1,.914,1.951.342.342,0,0,1-.227.389.294.294,0,0,1-.316-.275,2.654,2.654,0,0,0-.665-1.495.645.645,0,0,0-.637-.08.657.657,0,0,0-.3.449c-.332,1.207.753,3.948,1.2,4.9a.383.383,0,0,1-.105.456A.219.219,0,0,1,541.273,246.31Z" transform="translate(-311.47 -100.952)" fill="#ce6161"/>
    <path id="Path_2914" data-name="Path 2914" d="M443.006,111.023a.8.8,0,0,1-.609-.268,1.555,1.555,0,0,1-.177-1.662c.415-1.1,1.268-2.789,1.3-2.862a.253.253,0,0,1,.382-.114.379.379,0,0,1,.094.463s-.87,1.729-1.274,2.8a.865.865,0,0,0,.033.871c.161.161.438.134.731-.1a15.075,15.075,0,0,0,2.216-3.419.258.258,0,0,1,.495,0,.4.4,0,0,1-.024.35,16.038,16.038,0,0,1-2.41,3.633A1.286,1.286,0,0,1,443.006,111.023Z" transform="translate(-263.919 -56.886)" fill="#ce6161"/>
    <path id="Path_2915" data-name="Path 2915" d="M439.286,109.561a1.276,1.276,0,0,1-.753-.261.993.993,0,0,1-.332-.731,8.571,8.571,0,0,1,1.662-4.786.249.249,0,0,1,.393,0,.387.387,0,0,1,0,.476,8.205,8.205,0,0,0-1.484,4.23.448.448,0,0,0,.072.235.735.735,0,0,0,.681.134,2.707,2.707,0,0,0,1.174-1.267.282.282,0,0,1,.244-.2.273.273,0,0,1,.253.178.4.4,0,0,1-.021.354,3.224,3.224,0,0,1-1.512,1.582A1.33,1.33,0,0,1,439.286,109.561Z" transform="translate(-261.984 -56.101)" fill="#ce6161"/>
    <path id="Path_2916" data-name="Path 2916" d="M436.948,107.828a1.319,1.319,0,0,1-1.047-.422,1.412,1.412,0,0,1-.227-1.126,10.085,10.085,0,0,1,1.4-3.271.246.246,0,0,1,.391-.05.386.386,0,0,1,.042.473,9.315,9.315,0,0,0-1.285,2.976c-.061.362.044.489.078.53.216.268.77.228.947.194a.292.292,0,0,1,.321.282.337.337,0,0,1-.233.389,2.229,2.229,0,0,1-.388.027Z" transform="translate(-260.696 -55.836)" fill="#ce6161"/>
    <path id="Path_2917" data-name="Path 2917" d="M434.258,106.3a.721.721,0,0,1-.587-.268c-.4-.509-.227-1.569.554-3.352a.259.259,0,0,1,.377-.134.322.322,0,0,1,.133.2.391.391,0,0,1-.022.253c-.931,2.1-.676,2.521-.643,2.567.122.147.554,0,.825-.147a.258.258,0,0,1,.374.151.373.373,0,0,1-.125.452,1.993,1.993,0,0,1-.886.282Z" transform="translate(-259.629 -55.714)" fill="#ce6161"/>
    <path id="Path_2918" data-name="Path 2918" d="M442.514,168.2a.393.393,0,0,1-.338-.208.576.576,0,0,1,.094-.67l2.061-1.8a.362.362,0,0,1,.31-.089.414.414,0,0,1,.271.2.582.582,0,0,1-.094.7l-2.061,1.79A.344.344,0,0,1,442.514,168.2Z" transform="translate(-263.889 -76.454)" fill="#106578"/>
    <path id="Path_2919" data-name="Path 2919" d="M475.9,126.183v6.328s1.108,1.8,0,3.211-5.229,2.011-7.2-.335c-1.446-1.79-.792-2.748-.792-2.748v-6.663S475.323,125.144,475.9,126.183Z" transform="translate(-276.664 -63.345)" fill="#f48f8f"/>
    <path id="Path_2920" data-name="Path 2920" d="M473.839,94.239s.515,8.748,0,12.737-1.241,8.306-9.034,8.306-8.2-3.057-9.755-11.242c0,0-2.476,1.059-2.941-2.433-.626-4.692,2.254-4.4,2.254-4.4s1.977-8.413,3.839-9.157,7.068-1.066,7.583-.751S473.839,94.239,473.839,94.239Z" transform="translate(-269.602 -50.66)" fill="#f48f8f"/>
    <path id="Path_2921" data-name="Path 2921" d="M475.879,87.613s.759,6.08-5.783,4.022-1.108-7.079-12.319-5.249c-1.717.583-1.169,3.5-1.169,4.833s-.554,4.914-4.4,3.5c0,0-.9-1.636-1.241-2.413s-2.4-7.83,4.681-9.164c0,0-.427-1.709.138-1.9s1.108,1.877,1.108,1.877,1.219-6.268,9.971-4.934C471.094,78.785,471.575,87.9,475.879,87.613Z" transform="translate(-268.987 -47.634)"/>
    <g id="Group_2764" data-name="Group 2764" transform="translate(300.707 20.107)">
      <path id="Path_2851-2" data-name="Path 2851" d="M603.746,200.984s2.825,1,3.235-.751-.133-2.326-.615-2.829-3.1-.583-3.323.751A4.861,4.861,0,0,0,603.746,200.984Z" transform="translate(-603.008 -197.067)" fill="#94f8ff"/>
    </g>
    <g id="Group_2765" data-name="Group 2765" transform="translate(287.284 13.403)">
      <path id="Path_2852-2" data-name="Path 2852" d="M579.06,201.434s4.431-3.084,4.431-7.662-7.434-6.576-9.417-6.7-5.578,4.022-4.753,11.872C569.672,201.314,575.039,204.933,579.06,201.434Z" transform="translate(-569.202 -187.066)" fill="#94f8ff"/>
    </g>
    <g id="Group_2766" data-name="Group 2766" transform="translate(14.129 25.423)">
      <path id="Path_2861-2" data-name="Path 2861" d="M180.219,229.862s2.166.248,1.545-2.125-3.922-1.374-3.816,0A2.563,2.563,0,0,0,180.219,229.862Z" transform="translate(-177.946 -226.308)" fill="#94f8ff"/>
    </g>
    <g id="Group_2767" data-name="Group 2767" transform="translate(17.062 18.851)">
      <path id="Path_2862-2" data-name="Path 2862" d="M179.985,242.27s-.515,4.873,3.922,7,7.018.121,7.123-3-.055-5.5-1.989-6.744S179.675,235.251,179.985,242.27Z" transform="translate(-179.967 -237.795)" fill="#94f8ff"/>
    </g>
  </g>
</svg>
