<svg xmlns="http://www.w3.org/2000/svg" width="20" height="20" viewBox="0 0 20 20">
  <path id="Icon_color" data-name="Icon color" d="M8.08,20H6.9a.994.994,0,0,1-.7-.289l-.63-.629a1,1,0,0,1-.26-1.118,2.534,2.534,0,0,0,.19-1A2.5,2.5,0,0,0,3,14.471H2.972a2.562,2.562,0,0,0-.973.19,1,1,0,0,1-.345.061A1,1,0,0,1,.92,14.4l-.63-.629a.992.992,0,0,1-.29-.7V11.9a.992.992,0,0,1,.29-.7L11.22.29A1,1,0,0,1,11.92,0h1.219A1,1,0,0,1,13.8.25l.63.629A1,1,0,0,1,14.69,2a2.551,2.551,0,0,0-.19,1A2.5,2.5,0,0,0,17,5.489h.033A2.563,2.563,0,0,0,18,5.3a1,1,0,0,1,1.08.259l.63.629a.989.989,0,0,1,.29.7V8.064a.993.993,0,0,1-.29.7L8.78,19.711A.994.994,0,0,1,8.08,20ZM10,7.985a2,2,0,1,0,2,2A2,2,0,0,0,10,7.985Z" transform="translate(0 0)" fill="#034080"/>
</svg>
