<svg xmlns="http://www.w3.org/2000/svg" xmlns:xlink="http://www.w3.org/1999/xlink" width="24" height="24" viewBox="0 0 24 24">
  <defs>
    <clipPath id="clip-path">
      <rect width="24" height="24" fill="none"/>
    </clipPath>
  </defs>
  <g id="ico_24_arrows_chevron_right" data-name="ico / 24 / arrows / chevron_right" transform="translate(24) rotate(90)" clip-path="url(#clip-path)">
    <rect id="Bounding_box" data-name="Bounding box" width="24" height="24" fill="rgba(255,255,255,0)"/>
    <path id="Icon_color" data-name="Icon color" d="M6.708,5.278a.75.75,0,0,1,.22.53v.38a.77.77,0,0,1-.22.53l-5.14,5.13a.5.5,0,0,1-.71,0l-.71-.71a.49.49,0,0,1,0-.7L4.6,6,.148,1.558a.5.5,0,0,1,0-.71l.71-.7a.5.5,0,0,1,.71,0Z" transform="translate(9.072 6.002)"/>
  </g>
</svg>
