<svg xmlns="http://www.w3.org/2000/svg" width="328.78" height="269.529" viewBox="0 0 328.78 269.529">
  <g id="logo" transform="translate(-3.43 0.02)">
    <path id="Path_3299" data-name="Path 3299" d="M331.55,309.55v172H305.79v-70.7c-62.94-12.24-89.47-43.91-85.53-101.33h26.66c1.34,23.07,2.33,46.82,23.22,62.83,9.31,7.15,20.48,10,35.36,9.34V309.55Z" transform="translate(-164.24 -309.42)" fill="#f9e27a"/>
    <path id="Path_3300" data-name="Path 3300" d="M334.23,410.53v71.13H308.15V309.5h25.92V382c20,.4,35.82-5.3,46.58-21.44,10.2-15.29,11.51-33,11.91-51.16H418.8C425.44,364,394.94,400.76,334.23,410.53Z" transform="translate(-164.24 -309.42)" fill="#3e516f"/>
    <path id="Path_3301" data-name="Path 3301" d="M280.59,413.85c-5.81,9.63-13.47,19.06-17.43,29.85-4,11-4.47,23.34-6.61,36H230.31c1-29.13,5.87-56.09,26.69-77.64C265.62,406.35,273.66,410.37,280.59,413.85Z" transform="translate(-164.24 -309.42)" fill="#f9e27a"/>
    <path id="Path_3302" data-name="Path 3302" d="M419.92,481.83h-26.5c-7.44-46.56-8.54-49.34-25.84-64.77,8.57-4.28,16.92-8.43,25.76-12.85C414.09,425.69,419,452.35,419.92,481.83Z" transform="translate(-164.24 -309.42)" fill="#3e516f"/>
    <path id="Path_3303" data-name="Path 3303" d="M211.12,576.68v1.07h-18.6v-1.07h.07a4.34,4.34,0,0,0,2.33-5.45l-9-27.51a28.58,28.58,0,0,1-3.16,1.51v27.14c0,3.16,3.52,4.34,3.52,4.34v1.07H167.67v-1.07s3.51-1.18,3.51-4.34V515.92c0-3.15-3.51-4.33-3.51-4.33v-1.08h18.59v1.08s-3.52,1.18-3.52,4.33v27.23a26.649,26.649,0,0,0,2.56-1.29,30.359,30.359,0,0,0,9.47-8.66,37.52,37.52,0,0,0,6.48-16.12,5,5,0,0,0-2.94-5.47h-.07v-1.08h8.55v1.08s-3.07,1-3.55,3.62a42,42,0,0,1-2.6,10.84,39,39,0,0,1-2.31,4.89c-.43.77-.89,1.53-1.38,2.26-.24.37-.49.73-.74,1.09a5.841,5.841,0,0,0-.75,1l.58,1.78,11.56,35.26.28.83a5.46,5.46,0,0,0,3.08,3.44Z" transform="translate(-164.24 -309.42)" fill="#3e516f"/>
    <path id="Path_3304" data-name="Path 3304" d="M250.33,515.92v56.42c0,3.16,3.52,4.34,3.52,4.34v1.07H235.26v-1.07s3.51-1.18,3.51-4.34v-22H226.63v22c0,3.16,3.52,4.34,3.52,4.34v1.07h-18.6v-1.07s3.52-1.18,3.52-4.34V515.92c0-3.15-3.52-4.33-3.52-4.33v-1.08h18.6v1.08s-3.52,1.18-3.52,4.33v32.39h12.14V515.92c0-3.15-3.51-4.33-3.51-4.33v-1.08h18.59v1.08S250.33,512.77,250.33,515.92Z" transform="translate(-164.24 -309.42)" fill="#3e516f"/>
    <path id="Path_3305" data-name="Path 3305" d="M298.85,544.72c0,18.89-9.81,34.21-21.91,34.21S255,563.61,255,544.72s9.81-34.21,21.91-34.21S298.85,525.83,298.85,544.72Zm-13-1.37c0-16.62-4-30.09-8.88-30.09s-8.87,13.47-8.87,30.09,4,30.07,8.87,30.07,8.85-13.42,8.85-30.07Z" transform="translate(-164.24 -309.42)" fill="#3e516f"/>
    <path id="Path_3306" data-name="Path 3306" d="M324.26,578.4a41.008,41.008,0,0,1-7.22-.65h-17v-1.07s3.52-1.18,3.52-4.34V515.92c0-3.16-3.52-4.33-3.52-4.33v-1.08h18.6s7.75-.75,13.15,3.22,4.72,11.8,4.72,14.41c0,2.09-3.75,10.57-9.38,11.74,5.8,3.87,11.63,8.59,12,16.52C339.87,572.62,331.92,578.4,324.26,578.4Zm-9.1-62.91v12.65h.14c0,3.2,2.74,5.65,6.36,8.13.93-1,2.3-3.85,2.17-11.52-.19-11.56-4-13.16-5.15-13.16a3.72,3.72,0,0,0-3.52,3.9Zm9.68,41.88c0-14-3.18-15.58-5.92-17.83a12,12,0,0,1-3.62-4.66h-.14v33c0,4.62.47,8.44,3.76,8.44,4.08,0,5.92-4.98,5.92-18.95Z" transform="translate(-164.24 -309.42)" fill="#3e516f"/>
    <path id="Path_3307" data-name="Path 3307" d="M373.77,573.13l.61,4.62H359.23v-1.07a4.83,4.83,0,0,0,2.75-4.34l-.7-5.3H348.91l-.86,5.41a6.25,6.25,0,0,0,2.66,4.23v1.07H337.83v-1.07s3.89-1.26,4.37-4.34l9-57,.77-4.87h13.58l8.15,61.83ZM361,564.79l-4.27-32.33-1.08-8.21L354.42,532l-5.16,32.81Zm16.9,11.89v1.07h-3.51l-.61-4.62c.61,2.56,4.12,3.55,4.11,3.55Z" transform="translate(-164.24 -309.42)" fill="#3e516f"/>
    <path id="Path_3308" data-name="Path 3308" d="M417.29,576.68v1.07h-7.81c-7.8,0-9-21.79-9.1-26.45s-.87-9.63-4.77-9.63a6.13,6.13,0,0,1-2.22-.39v31.06c0,3.16,3.52,4.34,3.52,4.34v1.07H378.32v-1.07s3.51-1.18,3.51-4.34V515.92c0-3.15-3.51-4.33-3.51-4.33v-1.08h23.79c4.48,0,12.43,1.08,12.43,15.07s-11.42,15.29-11.42,15.29c4.92,0,10,11.24,10,22.64S417.29,576.68,417.29,576.68Zm-15.18-52.84c0-12.81-5.17-12.25-5.2-12.25a3.74,3.74,0,0,0-3.52,3.9h0v18.63h0v2.67c.21,1.38.83,2.78,2.51,2.78,3.32.01,6.21-2.88,6.21-15.73Z" transform="translate(-164.24 -309.42)" fill="#3e516f"/>
    <path id="Path_3309" data-name="Path 3309" d="M453.75,573.13l.61,4.62H439.21v-1.07a4.83,4.83,0,0,0,2.75-4.34l-.7-5.3H428.88l-.85,5.41a6.21,6.21,0,0,0,2.66,4.23v1.07H417.81v-1.07s3.89-1.26,4.37-4.34l9-57,.77-4.87H445.5l8.14,61.83ZM441,564.79l-4.26-32.33-1.08-8.21L434.4,532l-5.16,32.81Zm16.91,11.89v1.07H454.4l-.61-4.62c.58,2.56,4.08,3.55,4.08,3.55Z" transform="translate(-164.24 -309.42)" fill="#3e516f"/>
    <path id="Path_3310" data-name="Path 3310" d="M492.33,573.13l.61,4.62H477.79v-1.07a4.83,4.83,0,0,0,2.75-4.34l-.7-5.3H467.46l-.85,5.41a6.22,6.22,0,0,0,2.65,4.23v1.07H456.39v-1.07s3.89-1.26,4.37-4.34l9-57,.76-4.87h13.59l8.14,61.83Zm-12.79-8.34-4.26-32.33-1.08-8.21L473,532l-5.16,32.81Zm16.91,11.89v1.07h-3.51l-.61-4.62c.67,2.56,4.12,3.55,4.12,3.55Z" transform="translate(-164.24 -309.42)" fill="#3e516f"/>
  </g>
</svg>
