<svg xmlns="http://www.w3.org/2000/svg" version="1.1" xmlns:xlink="http://www.w3.org/1999/xlink" xmlns:svgjs="http://svgjs.com/svgjs" width="512" height="512" x="0" y="0" viewBox="0 0 512 512" style="enable-background:new 0 0 512 512" xml:space="preserve" class=""><g>
<g xmlns="http://www.w3.org/2000/svg">
	<g>
		<path d="M256,211c-24.814,0-45,20.186-45,45c0,24.814,20.186,45,45,45c24.814,0,45-20.186,45-45C301,231.186,280.814,211,256,211z    " fill="#06447b" data-original="#000000" class=""></path>
	</g>
</g>
<g xmlns="http://www.w3.org/2000/svg">
	<g>
		<path d="M499.461,211.205l-56.225-9.214c-4.028-13.96-9.609-27.407-16.685-40.181l32.563-45.586    c4.263-5.962,3.589-14.136-1.597-19.321l-42.422-42.422c-5.2-5.186-13.403-5.859-19.321-1.597l-45.586,32.549    c-12.759-7.061-26.206-12.642-40.181-16.67l-9.214-56.225C299.594,5.303,293.339,0,286,0h-60c-7.339,0-13.594,5.303-14.795,12.539    l-9.214,56.225c-13.975,4.028-27.422,9.609-40.181,16.67l-45.586-32.549c-5.947-4.263-14.15-3.589-19.321,1.597L54.481,96.903    c-5.186,5.186-5.859,13.359-1.597,19.321l32.563,45.586c-7.075,12.773-12.656,26.221-16.685,40.181l-56.225,9.214    C5.303,212.406,0,218.661,0,226v60c0,7.339,5.303,13.594,12.539,14.795l56.225,9.214c4.028,13.975,9.609,27.422,16.67,40.181    l-32.549,45.586c-4.263,5.962-3.589,14.136,1.597,19.321l42.422,42.422c5.171,5.171,13.374,5.845,19.321,1.597l45.586-32.549    c12.759,7.061,26.206,12.642,40.181,16.67l9.214,56.225C212.406,506.697,218.661,512,226,512h60    c7.339,0,13.594-5.303,14.795-12.539l9.214-56.225c13.975-4.028,27.422-9.609,40.181-16.67l45.586,32.549    c5.918,4.248,14.121,3.574,19.321-1.597l42.422-42.422c5.186-5.186,5.859-13.359,1.597-19.321l-32.549-45.586    c7.061-12.759,12.642-26.206,16.67-40.181l56.225-9.214C506.697,299.594,512,293.339,512,286v-60    C512,218.661,506.697,212.406,499.461,211.205z M256,361c-57.891,0-105-47.109-105-105s47.109-105,105-105s105,47.109,105,105    S313.891,361,256,361z" fill="#06447b" data-original="#000000" class=""></path>
	</g>
</g>
<g xmlns="http://www.w3.org/2000/svg">
</g>
<g xmlns="http://www.w3.org/2000/svg">
</g>
<g xmlns="http://www.w3.org/2000/svg">
</g>
<g xmlns="http://www.w3.org/2000/svg">
</g>
<g xmlns="http://www.w3.org/2000/svg">
</g>
<g xmlns="http://www.w3.org/2000/svg">
</g>
<g xmlns="http://www.w3.org/2000/svg">
</g>
<g xmlns="http://www.w3.org/2000/svg">
</g>
<g xmlns="http://www.w3.org/2000/svg">
</g>
<g xmlns="http://www.w3.org/2000/svg">
</g>
<g xmlns="http://www.w3.org/2000/svg">
</g>
<g xmlns="http://www.w3.org/2000/svg">
</g>
<g xmlns="http://www.w3.org/2000/svg">
</g>
<g xmlns="http://www.w3.org/2000/svg">
</g>
<g xmlns="http://www.w3.org/2000/svg">
</g>
</g></svg>