<svg id="user_add" xmlns="http://www.w3.org/2000/svg" width="22" height="16" viewBox="0 0 22 16">
  <path id="Icon_color" data-name="Icon color" d="M15,16H1a1,1,0,0,1-.89-1.45l1.44-2.89A2.985,2.985,0,0,1,4.234,10h7.525a2.989,2.989,0,0,1,2.69,1.66l1.44,2.89A1,1,0,0,1,15,16Zm3.5-5h-1a.5.5,0,0,1-.5-.5V8H14.5a.5.5,0,0,1-.5-.5v-1a.5.5,0,0,1,.5-.5H17V3.5a.5.5,0,0,1,.5-.5h1a.5.5,0,0,1,.5.5V6h2.5a.5.5,0,0,1,.5.5v1a.5.5,0,0,1-.5.5H19v2.5A.5.5,0,0,1,18.5,11ZM8,8a4,4,0,1,1,4-4A4.005,4.005,0,0,1,8,8Z" fill="#034080"/>
</svg>
