<svg xmlns="http://www.w3.org/2000/svg" width="18.023" height="17.017" viewBox="0 0 18.023 17.017">
  <path id="Icon_color" data-name="Icon color" d="M.171,6.614A.41.41,0,0,1,.018,6.16l.068-.21A.415.415,0,0,1,.46,5.655l5.426-.429L7.967.27A.433.433,0,0,1,8.4,0h.221a.416.416,0,0,1,.4.269l2.089,4.956,5.426.429a.415.415,0,0,1,.374.294l.068.21a.41.41,0,0,1-.127.454L12.756,10.1l1.257,5.225a.427.427,0,0,1-.161.446l-.246.135a.428.428,0,0,1-.476,0L8.51,13.126l-4.645,2.8a.428.428,0,0,1-.476,0L3.2,15.8a.427.427,0,0,1-.161-.446L4.264,10.1Z" transform="translate(0.511 0.501)" fill="#fff70d" stroke="#fff70d" stroke-miterlimit="10" stroke-width="1"/>
</svg>
