<?xml version="1.0" encoding="iso-8859-1"?>
<!-- Generator: Adobe Illustrator 19.0.0, SVG Export Plug-In . SVG Version: 6.00 Build 0)  -->
<svg version="1.1" id="Capa_1" xmlns="http://www.w3.org/2000/svg" xmlns:xlink="http://www.w3.org/1999/xlink" x="0px" y="0px"
	 viewBox="0 0 512 512" style="enable-background:new 0 0 512 512;" xml:space="preserve">
<g>
	<g>
		<path d="M474.382,70.022C479.19,62.862,482,54.254,482,45c0-24.813-20.187-45-45-45s-45,20.187-45,45
			c0,9.254,2.81,17.862,7.618,25.022C377.159,82.994,362,107.252,362,135v30c0,8.284,6.716,15,15,15h120c8.284,0,15-6.716,15-15v-30
			C512,107.252,496.841,82.994,474.382,70.022z M437,30c8.271,0,15,6.729,15,15s-6.729,15-15,15s-15-6.729-15-15S428.729,30,437,30z
			 M482,150h-90v-15c0-24.813,20.187-45,45-45s45,20.187,45,45V150z"/>
	</g>
</g>
<g>
	<g>
		<path d="M293.382,160.022C298.19,152.862,301,144.254,301,135c0-24.813-20.187-45-45-45s-45,20.187-45,45
			c0,9.254,2.81,17.862,7.618,25.022C196.159,172.994,181,197.252,181,225v30c0,8.284,6.716,15,15,15h120c8.284,0,15-6.716,15-15
			v-30C331,197.252,315.841,172.994,293.382,160.022z M256,120c8.271,0,15,6.729,15,15s-6.729,15-15,15s-15-6.729-15-15
			S247.729,120,256,120z M301,240h-90v-15c0-24.813,20.187-45,45-45s45,20.187,45,45V240z"/>
	</g>
</g>
<g>
	<g>
		<path d="M112.382,250.022C117.19,242.862,120,234.254,120,225c0-24.813-20.187-45-45-45s-45,20.187-45,45
			c0,9.254,2.81,17.862,7.618,25.022C15.159,262.994,0,287.252,0,315v30c0,8.284,6.716,15,15,15h120c8.284,0,15-6.716,15-15v-30
			C150,287.252,134.841,262.994,112.382,250.022z M75,210c8.271,0,15,6.729,15,15s-6.729,15-15,15s-15-6.729-15-15
			S66.729,210,75,210z M120,330H30v-15c0-24.813,20.187-45,45-45s45,20.187,45,45V330z"/>
	</g>
</g>
<g>
	<g>
		<path d="M497,210H377c-8.284,0-15,6.716-15,15v257h-31V315c0-8.284-6.716-15-15-15H196c-8.284,0-15,6.716-15,15v167h-31v-77
			c0-8.284-6.716-15-15-15H15c-8.284,0-15,6.716-15,15v92c0,8.284,6.716,15,15,15c11.474,0,477.226,0,482,0c8.284,0,15-6.716,15-15
			V225C512,216.716,505.284,210,497,210z M120,482H30v-62h90V482z M301,482h-90V330h90V482z M482,482h-90V240h90V482z"/>
	</g>
</g>
<g>
</g>
<g>
</g>
<g>
</g>
<g>
</g>
<g>
</g>
<g>
</g>
<g>
</g>
<g>
</g>
<g>
</g>
<g>
</g>
<g>
</g>
<g>
</g>
<g>
</g>
<g>
</g>
<g>
</g>
</svg>
