<svg id="verified" xmlns="http://www.w3.org/2000/svg" width="22.5" height="26.667" viewBox="0 0 22.5 26.667">
  <path id="Path_2370" data-name="Path 2370" d="M61.858,4.318,51.649.08a1.042,1.042,0,0,0-.8,0L40.642,4.318A1.042,1.042,0,0,0,40,5.28v5.152A17.444,17.444,0,0,0,50.856,26.59a1.042,1.042,0,0,0,.787,0A17.444,17.444,0,0,0,62.5,10.433V5.28A1.042,1.042,0,0,0,61.858,4.318Zm-1.441,6.114A15.365,15.365,0,0,1,51.25,24.494a15.365,15.365,0,0,1-9.167-14.061V5.976L51.25,2.17l9.167,3.806ZM50.1,13.944l4.477-4.477a1.042,1.042,0,1,1,1.473,1.473l-5.214,5.214a1.042,1.042,0,0,1-1.473,0l-2.911-2.911a1.042,1.042,0,0,1,1.473-1.473Z" transform="translate(-40 0)" fill="#034080"/>
  <path id="Path_2371" data-name="Path 2371" d="M51.25,0" transform="translate(-40 0)" fill="none" stroke="#707070" stroke-width="1"/>
</svg>
